<svg xmlns="http://www.w3.org/2000/svg" xmlns:xlink="http://www.w3.org/1999/xlink" xmlns:lucid="lucid" width="1822.01" height="1137.66"><g transform="translate(1.0067303614489198 -114.7374090970925)" lucid:page-tab-id="0_0"><path d="M0 0h1870.4v1323.2H0z" fill="#fff"/><path d="M715.96 967.7l13.57 15.1 12.36 12.66 10.96 10.32 10.03 8.68 9.38 7.45 8.97 6.54 8.72 5.8 8.6 5.23 8.64 4.75 8.8 4.36 9.04 4.04 9.48 3.76 10.1 3.52 10.96 3.32 12.15 3.12 13.84 2.94 16.33 2.77 20.25 2.55 27.2 2.27 43.12 1.75 259.9-2.07" stroke="#000" stroke-width="3" fill="none"/><path d="M711.5 971.7l13.6 15.15.05.05.04.05 12.45 12.75.04.04.04.04 11.06 10.4.04.06.05.04 10.1 8.75.06.05.05.03 9.5 7.55.05.04.05.03 9.07 6.6.05.04.06.03 8.82 5.88.05.03.06.04 8.73 5.3.05.03.05.03 8.74 4.8.06.04.06.03 8.87 4.4.06.04.06.04 9.15 4.1h.06l.07.04 9.6 3.8.06.02.06.03 10.2 3.56h.07l.06.03 11.07 3.35.07.02h.06l12.27 3.17h.06l.06.03 13.97 2.97h.05l.06.02 16.47 2.77h.06l.06.02 20.36 2.56h.13l27.32 2.3H945.04l43.25 1.75.07.02h.07l259.96-2.07M716 967.72l-1.04-1.15M711.52 971.72l-1.02-1.14" stroke="#000" stroke-width="3" fill="none"/><path d="M1264.15 1079.42l-14.23 4.75-.08-9.27z" stroke="#000" stroke-width="3" fill="#fff"/><path d="M1070 534.74h240v260h-240z" stroke="#000" stroke-width="2" fill="#c7e8ac"/><path d="M1094 534.74v260m192-260v260" stroke="#000" stroke-width="2" fill="none"/><use xlink:href="#a" transform="matrix(1,0,0,1,1105,539.7374090970926) translate(40.11234567901235 89.0888888888889)"/><use xlink:href="#b" transform="matrix(1,0,0,1,1105,539.7374090970926) translate(85.5 116.02222222222224)"/><use xlink:href="#c" transform="matrix(1,0,0,1,1105,539.7374090970926) translate(62.46327160493828 142.95555555555558)"/><use xlink:href="#d" transform="matrix(1,0,0,1,1105,539.7374090970926) translate(8.939506172839515 169.88888888888889)"/><path d="M755.7 147.94c0 7.3-8.23 13.2-18.37 13.2-10.2 0-18.42-5.9-18.42-13.2 0-7.3 8.24-13.2 18.43-13.2 10.14 0 18.36 5.9 18.36 13.2zM721.55 162.44h31.92c9.82 0 9.82 0 9.82 7.1s0 7.1-9.83 7.1h-31.92c-9.83 0-9.83 0-9.83-7.1s0-7.1 9.83-7.1z" fill="#29aae1"/><path d="M723.72 174.34h27.16v29.3h-27.16v-29.3z" fill="#29aae1"/><path d="M723.72 202.54h12.26v32.3h-12.26v-32.3zM739.5 202.84h11.38v31.8H739.5v-31.8zM711.83 167.74h9.3v28.3h-9.3v-28.3zM753.83 168.14h9.4v28.3h-9.4v-28.3z" fill="#29aae1"/><use xlink:href="#e" transform="matrix(1,0,0,1,681.7241379310346,234.73740909709258) translate(11.796913580246922 18.022222222222222)"/><use xlink:href="#f" transform="matrix(1,0,0,1,681.7241379310346,234.73740909709258) translate(12.420370370370378 44.95555555555555)"/><path d="M840 340.87h144v102c-24.05-17.03-39.02-17.03-48.1-17.03-14.4 0-33.55 17.03-47.95 17.03-8.93 0-24.05 0-47.95-17.03z" stroke="#000" stroke-width="2" fill="#c1e4f7"/><path d="M848 349.87h144v102c-24.05-17.03-39.02-17.03-48.1-17.03-14.4 0-33.55 17.03-47.95 17.03-8.93 0-24.05 0-47.95-17.03z" stroke="#000" stroke-width="2" fill="#c1e4f7"/><path d="M856 358.87h144v102c-24.05-17.03-39.02-17.03-48.1-17.03-14.4 0-33.55 17.03-47.95 17.03-8.93 0-24.05 0-47.95-17.03z" stroke="#000" stroke-width="2" fill="#c1e4f7"/><use xlink:href="#g" transform="matrix(1,0,0,1,861,363.8707424304258) translate(14.8030864197531 17.955555555555552)"/><use xlink:href="#h" transform="matrix(1,0,0,1,861,363.8707424304258) translate(60.814197530864206 17.955555555555552)"/><use xlink:href="#i" transform="matrix(1,0,0,1,861,363.8707424304258) translate(19.13611111111112 44.888888888888886)"/><path d="M764.24 184.76l6.25.13 7.1.44 6.97.73 6.85 1 6.72 1.3 6.58 1.54 6.45 1.8 6.3 2.06 6.18 2.3 6.03 2.52 5.87 2.77 5.72 3 5.56 3.2 5.4 3.43 5.23 3.63 5.06 3.85 4.87 4.03 4.7 4.22 4.5 4.4 4.3 4.6 4.1 4.76 3.9 4.92 3.7 5.08 3.48 5.24 3.26 5.4 3.04 5.52 2.82 5.68 2.58 5.8 2.36 5.96 2.12 6.08 1.87 6.2 1.63 6.34 1.37 6.47 1.12 6.6.7 5.66" stroke="#000" stroke-width="2" fill="none"/><path d="M764.3 183.76l-.05 2-1-.02v-2z" stroke="#000" stroke-width=".05"/><path d="M919.82 336.64l-5.43-13.98 9.24-.52z" stroke="#000" stroke-width="2"/><path d="M1560 534.74h240v260h-240z" stroke="#000" stroke-width="2" fill="#ffeca9"/><path d="M1584 534.74v260m192-260v260" stroke="#000" stroke-width="2" fill="none"/><use xlink:href="#a" transform="matrix(1,0,0,1,1595,539.7374090970926) translate(40.11234567901235 89.0888888888889)"/><use xlink:href="#b" transform="matrix(1,0,0,1,1595,539.7374090970926) translate(85.5 116.02222222222224)"/><use xlink:href="#j" transform="matrix(1,0,0,1,1595,539.7374090970926) translate(70.53703703703704 142.95555555555558)"/><use xlink:href="#k" transform="matrix(1,0,0,1,1595,539.7374090970926) translate(8.939506172839515 169.88888888888889)"/><path d="M980 928.57h160v80H980z" stroke="#000" stroke-width="2" fill="#ffdba9"/><path d="M996 928.57v80m128-80v80" stroke="#000" stroke-width="2" fill="none"/><use xlink:href="#l" transform="matrix(1,0,0,1,1005,933.571468957469) translate(2.8478395061728605 39.48888888888889)"/><path d="M960 480.87h200V560H960z" stroke="#000" stroke-width="2" fill="#c7e8ac"/><path d="M980 480.87V560m160-79.13V560" stroke="#000" stroke-width="2" fill="none"/><use xlink:href="#m" transform="matrix(1,0,0,1,990,485.87074243042576) translate(7.841358024691381 39.48888888888889)"/><path d="M1002 400.9l12.23.25 13 .82 12.62 1.32 12.07 1.77 11.43 2.18 10.74 2.5 10 2.8 9.28 3.02 8.58 3.2 7.9 3.3 7.3 3.44 6.7 3.5 6.16 3.57 5.68 3.6 5.22 3.63 4.82 3.65 4.44 3.68 4.1 3.68 3.78 3.72 3.5 3.72 3.23 3.74 2.97 3.77 2.76 3.8 2.55 3.83 2.35 3.88 2.16 3.93 1.97 3.97 1.8 4.06 1.64 4.13 1.48 4.23 1.3 4.32 1.15 4.45.97 4.58.74 4.35" stroke="#000" stroke-width="2" fill="none"/><path d="M1002.05 399.9l-.04 2-1-.03v-2z" stroke="#000" stroke-width=".05"/><path d="M1189.76 530.5l-5.67-13.88 9.23-.68z" stroke="#000" stroke-width="2"/><path d="M958 520.4l-2.15-.1-2.74-.33-2.42-.5-2.2-.66-2.06-.78-1.93-.94-1.86-1.1-1.8-1.28-1.8-1.52-1.82-1.8-1.9-2.23-2.02-2.82-2.28-3.8-2.82-5.74-7.6-19.83" stroke="#000" stroke-width="2" fill="none"/><path d="M959 519.43v2l-1.07-.04.08-2z" stroke="#000" stroke-width=".05"/><path d="M915.12 462.72l9.44 11.66-8.65 3.32z" stroke="#000" stroke-width="2"/><path d="M40 340.87h160v120c-26.72-20.04-43.36-20.04-53.44-20.04-16 0-37.28 20.04-53.28 20.04-9.92 0-26.72 0-53.28-20.04z" stroke="#000" stroke-width="2" fill="#c1e4f7"/><use xlink:href="#n" transform="matrix(1,0,0,1,45,345.8707424304258) translate(42.673765432098776 23.580555555555552)"/><use xlink:href="#o" transform="matrix(1,0,0,1,45,345.8707424304258) translate(75 50.513888888888886)"/><use xlink:href="#p" transform="matrix(1,0,0,1,45,345.8707424304258) translate(47.91080246913581 77.44722222222221)"/><path d="M450 340.87h160v120c-26.72-20.04-43.36-20.04-53.44-20.04-16 0-37.28 20.04-53.28 20.04-9.92 0-26.72 0-53.28-20.04z" stroke="#000" stroke-width="2" fill="#c1e4f7"/><use xlink:href="#q" transform="matrix(1,0,0,1,455,345.8707424304258) translate(46.60154320987655 23.580555555555552)"/><use xlink:href="#o" transform="matrix(1,0,0,1,455,345.8707424304258) translate(75 50.513888888888886)"/><use xlink:href="#p" transform="matrix(1,0,0,1,455,345.8707424304258) translate(47.91080246913581 77.44722222222221)"/><path d="M120.02 452.76l.04 2.24.2 3.2.33 3.17.45 3.15.6 3.16.74 3.16.88 3.2 1.04 3.23 1.22 3.3 1.4 3.35 1.63 3.46 1.86 3.56 2.13 3.7 2.46 3.88 2.82 4.07 3.28 4.32 3.82 4.62 4.5 5 5.38 5.5 6.53 6.15 8.15 7.04 10.6 8.4 15 10.9 27.66 18.3 71.44 45.77 14.7 10.7 10.38 8.22 7.95 6.87 6.35 5.96 5.2 5.33 4.37 4.84 3.7 4.47 3.15 4.17 2.7 3.92 2.37 3.7 2.05 3.56 1.78 3.42 1.55 3.3 1.34 3.22 1.16 3.14 1 3.08.76 2.75" stroke="#000" stroke-width="2" fill="none"/><path d="M121.02 452.76l-2 .04v-.55l1.97-1z" stroke="#000" stroke-width=".05"/><path d="M366.66 714.36l-6.42-13.56 9.2-1.18z" stroke="#000" stroke-width="2"/><path d="M100 840h240v120H100z" stroke="#000" stroke-width="2" fill="#ffdba9"/><path d="M124 840v120m192-120v120" stroke="#000" stroke-width="2" fill="none"/><use xlink:href="#r" transform="matrix(1,0,0,1,135,845) translate(7.192592592592618 32.55555555555556)"/><use xlink:href="#s" transform="matrix(1,0,0,1,135,845) translate(78.07962962962964 32.55555555555556)"/><use xlink:href="#b" transform="matrix(1,0,0,1,135,845) translate(85 59.488888888888894)"/><use xlink:href="#t" transform="matrix(1,0,0,1,135,845) translate(38.27191358024692 86.42222222222222)"/><path d="M416.8 1008.72h200v120c-33.4-20.04-54.2-20.04-66.8-20.04-20 0-46.6 20.04-66.6 20.04-12.4 0-33.4 0-66.6-20.04z" stroke="#000" stroke-width="2" fill="#c1e4f7"/><use xlink:href="#u" transform="matrix(1,0,0,1,421.80459770114953,1013.7182805605794) translate(15.964814814814815 24.615277777777777)"/><use xlink:href="#v" transform="matrix(1,0,0,1,421.80459770114953,1013.7182805605794) translate(95 48.88194444444444)"/><use xlink:href="#w" transform="matrix(1,0,0,1,421.80459770114953,1013.7182805605794) translate(70.5929012345679 73.14861111111111)"/><path d="M353.97 147.94c0 7.3-8.23 13.2-18.37 13.2-10.2 0-18.4-5.9-18.4-13.2 0-7.3 8.2-13.2 18.4-13.2 10.14 0 18.37 5.9 18.37 13.2zM319.83 162.44h31.9c9.84 0 9.84 0 9.84 7.1s0 7.1-9.83 7.1h-31.9c-9.84 0-9.84 0-9.84-7.1s0-7.1 9.83-7.1z" fill="#29aae1"/><path d="M322 174.34h27.16v29.3H322v-29.3z" fill="#29aae1"/><path d="M322 202.54h12.26v32.3H322v-32.3zM337.78 202.84h11.38v31.8h-11.38v-31.8zM310.1 167.74h9.3v28.3h-9.3v-28.3zM352.1 168.14h9.42v28.3h-9.42v-28.3z" fill="#29aae1"/><use xlink:href="#x" transform="matrix(1,0,0,1,279.99999999999994,234.73740909709258) translate(8.05617283950619 18.022222222222222)"/><use xlink:href="#f" transform="matrix(1,0,0,1,279.99999999999994,234.73740909709258) translate(12.420370370370378 44.95555555555555)"/><path d="M309.1 184.76l-9.6.2-10.5.66-10.32 1.1-10.13 1.48-9.86 1.88-9.57 2.24-9.2 2.57-8.85 2.86-8.44 3.14-8.04 3.38-7.63 3.6-7.22 3.76-6.8 3.93-6.4 4.07-6.04 4.18-5.64 4.3-5.3 4.37-4.94 4.45-4.63 4.53-4.32 4.6-4.02 4.65-3.74 4.7-3.47 4.8-3.22 4.83-2.97 4.9-2.73 4.98-2.5 5.05-2.3 5.12-2.06 5.2-1.85 5.33-1.64 5.42-1.42 5.54-1.2 5.68-1 5.82-.4 3.32" stroke="#000" stroke-width="2" fill="none"/><path d="M310.1 185.74l-1 .02-.05-2 1.05-.02z" stroke="#000" stroke-width=".05"/><path d="M120.2 336.64l-3.73-14.53 9.25.6z" stroke="#000" stroke-width="2"/><path d="M362.52 184.76l7.25.15 8.13.52 8 .84 7.88 1.16 7.7 1.48 7.56 1.77 7.37 2.05 7.2 2.34 6.98 2.6 6.77 2.84 6.55 3.08 6.32 3.3 6.1 3.52 5.84 3.72 5.6 3.9 5.37 4.06 5.12 4.23 4.86 4.4 4.63 4.52 4.37 4.65 4.13 4.78 3.88 4.9 3.65 5 3.4 5.14 3.17 5.2 2.94 5.35 2.7 5.44 2.46 5.53 2.24 5.65 2 5.76 1.78 5.87 1.54 6 1.3 6.12 1.05 6.24.58 4.55" stroke="#000" stroke-width="2" fill="none"/><path d="M362.57 183.76l-.05 2-1-.02v-2z" stroke="#000" stroke-width=".05"/><path d="M529.8 336.64l-5.46-13.97 9.25-.54z" stroke="#000" stroke-width="2"/><path d="M710.82 184.75l-7.4.07-8.47.43-8.53.8-8.53 1.15-8.52 1.52-8.43 1.88-8.32 2.2-8.16 2.56-7.97 2.86-7.74 3.14-7.48 3.42-7.2 3.65-6.9 3.87-6.56 4.07-6.25 4.23-5.92 4.4-5.6 4.5-5.25 4.62-4.93 4.72-4.62 4.8-4.3 4.87-4.02 4.95-3.72 5-3.43 5.05-3.17 5.1-2.92 5.16-2.66 5.2-2.42 5.27-2.18 5.32-1.94 5.4-1.72 5.44-1.5 5.52-1.25 5.62-1.03 5.7-.57 4.18" stroke="#000" stroke-width="2" fill="none"/><path d="M711.83 185.74h-1.02v-2h1.03z" stroke="#000" stroke-width=".05"/><path d="M530.2 336.64l-3.7-14.53 9.26.6z" stroke="#000" stroke-width="2"/><path d="M82.5 718.57c-17.26 0-31.25 14-31.25 31.25v187.5c0 17.26-14 31.25-31.25 31.25 17.26 0 31.25 14 31.25 31.25v187.5c0 17.26 14 31.25 31.25 31.25m566.72 0c17.26 0 31.25-14 31.25-31.25v-187.5c0-17.26 14-31.25 31.25-31.25-17.25 0-31.25-14-31.25-31.25v-187.5c0-17.26-14-31.25-31.25-31.25" stroke="#000" stroke-width="2" fill="none"/><path d="M714.22 965.57l244.15-.87M714.24 971.57l244.15-.87" stroke="#000" stroke-width="3" fill="none"/><path d="M714.26 967.07h-4.54v-3h4.53zM714.28 973.07h-4.54v-3h4.53z" stroke="#000" stroke-width=".05"/><path d="M974.15 967.65l-14.25 4.68-.04-9.27z" stroke="#000" stroke-width="3" fill="#fff"/><path d="M529.97 452.76l-.1 4.06-.35 4.96-.55 4.9-.75 4.84-.95 4.82-1.17 4.83-1.4 4.86-1.63 4.92-1.9 5.02-2.2 5.15-2.56 5.32-2.94 5.56-3.44 5.86-4.04 6.27-4.82 6.83-5.88 7.63-7.47 8.88-10.26 11.23-18.94 18.97-42.96 41.93-9.82 10.73-7.06 8.4-5.5 7.15-4.48 6.34-3.73 5.8-3.15 5.36-2.7 5.06-2.3 4.83-2 4.64-1.7 4.5-1.46 4.4-1.24 4.32-1.03 4.27-.75 3.77" stroke="#000" stroke-width="2" fill="none"/><path d="M530.97 452.8l-2-.04.02-.5 2-1.02z" stroke="#000" stroke-width=".05"/><path d="M367.36 714.35l-3.34-14.62 9.23.82z" stroke="#000" stroke-width="2"/><path d="M80 980h336.8v252.4H80z" stroke="#000" stroke-opacity="0" stroke-width="2" fill="#fff" fill-opacity="0"/><use xlink:href="#y" transform="matrix(1,0,0,1,85,985) translate(0 33.14305555555555)"/><use xlink:href="#z" transform="matrix(1,0,0,1,85,985) translate(6.1833333333333345 60.07638888888887)"/><use xlink:href="#A" transform="matrix(1,0,0,1,85,985) translate(20.22222222222222 60.07638888888887)"/><use xlink:href="#B" transform="matrix(1,0,0,1,85,985) translate(87.43086419753084 60.07638888888887)"/><use xlink:href="#z" transform="matrix(1,0,0,1,85,985) translate(6.1833333333333345 87.0097222222222)"/><use xlink:href="#A" transform="matrix(1,0,0,1,85,985) translate(20.22222222222222 87.0097222222222)"/><use xlink:href="#C" transform="matrix(1,0,0,1,85,985) translate(87.43086419753084 87.0097222222222)"/><use xlink:href="#D" transform="matrix(1,0,0,1,85,985) translate(108.62839506172836 87.0097222222222)"/><use xlink:href="#E" transform="matrix(1,0,0,1,85,985) translate(151.0234567901234 87.0097222222222)"/><use xlink:href="#z" transform="matrix(1,0,0,1,85,985) translate(6.1833333333333345 113.94305555555552)"/><use xlink:href="#A" transform="matrix(1,0,0,1,85,985) translate(20.22222222222222 113.94305555555552)"/><use xlink:href="#F" transform="matrix(1,0,0,1,85,985) translate(87.43086419753084 113.94305555555552)"/><use xlink:href="#G" transform="matrix(1,0,0,1,85,985) translate(172.15864197530857 113.94305555555552)"/><use xlink:href="#z" transform="matrix(1,0,0,1,85,985) translate(6.1833333333333345 140.87638888888884)"/><use xlink:href="#H" transform="matrix(1,0,0,1,85,985) translate(20.22222222222222 140.87638888888884)"/><use xlink:href="#I" transform="matrix(1,0,0,1,85,985) translate(185.87469135802462 140.87638888888884)"/><use xlink:href="#z" transform="matrix(1,0,0,1,85,985) translate(6.1833333333333345 167.80972222222218)"/><use xlink:href="#J" transform="matrix(1,0,0,1,85,985) translate(20.22222222222222 167.80972222222218)"/><use xlink:href="#K" transform="matrix(1,0,0,1,85,985) translate(129.76358024691353 167.80972222222218)"/><use xlink:href="#L" transform="matrix(1,0,0,1,85,985) translate(154.70185185185179 167.80972222222218)"/><use xlink:href="#M" transform="matrix(1,0,0,1,85,985) translate(203.26913580246904 167.80972222222218)"/><use xlink:href="#N" transform="matrix(1,0,0,1,85,985) translate(228.2074074074073 167.80972222222218)"/><use xlink:href="#z" transform="matrix(1,0,0,1,85,985) translate(6.1833333333333345 194.74305555555551)"/><use xlink:href="#O" transform="matrix(1,0,0,1,85,985) translate(20.22222222222222 194.74305555555551)"/><use xlink:href="#P" transform="matrix(1,0,0,1,85,985) translate(177.08395061728388 194.74305555555551)"/><use xlink:href="#Q" transform="matrix(1,0,0,1,85,985) translate(223.09506172839497 194.74305555555551)"/><use xlink:href="#z" transform="matrix(1,0,0,1,85,985) translate(6.1833333333333345 221.67638888888885)"/><use xlink:href="#R" transform="matrix(1,0,0,1,85,985) translate(20.22222222222222 221.67638888888885)"/><use xlink:href="#C" transform="matrix(1,0,0,1,85,985) translate(101.20925925925923 221.67638888888885)"/><use xlink:href="#S" transform="matrix(1,0,0,1,85,985) translate(122.40679012345674 221.67638888888885)"/><path d="M1320 340.87h144v102c-24.05-17.03-39.02-17.03-48.1-17.03-14.4 0-33.55 17.03-47.95 17.03-8.93 0-24.05 0-47.95-17.03z" stroke="#000" stroke-width="2" fill="#c1e4f7"/><path d="M1328 349.87h144v102c-24.05-17.03-39.02-17.03-48.1-17.03-14.4 0-33.55 17.03-47.95 17.03-8.93 0-24.05 0-47.95-17.03z" stroke="#000" stroke-width="2" fill="#c1e4f7"/><path d="M1336 358.87h144v102c-24.05-17.03-39.02-17.03-48.1-17.03-14.4 0-33.55 17.03-47.95 17.03-8.93 0-24.05 0-47.95-17.03z" stroke="#000" stroke-width="2" fill="#c1e4f7"/><use xlink:href="#g" transform="matrix(1,0,0,1,1341,363.8707424304258) translate(14.8030864197531 17.955555555555552)"/><use xlink:href="#h" transform="matrix(1,0,0,1,1341,363.8707424304258) translate(60.814197530864206 17.955555555555552)"/><use xlink:href="#i" transform="matrix(1,0,0,1,1341,363.8707424304258) translate(19.13611111111112 44.888888888888886)"/><path d="M1440 480.87h200V560h-200z" stroke="#000" stroke-width="2" fill="#ffeca9"/><path d="M1460 480.87V560m160-79.13V560" stroke="#000" stroke-width="2" fill="none"/><use xlink:href="#m" transform="matrix(1,0,0,1,1470,485.87074243042576) translate(7.841358024691381 39.48888888888889)"/><path d="M1438 520.4l-2.15-.1-2.74-.33-2.42-.5-2.2-.66-2.06-.78-1.93-.94-1.86-1.1-1.8-1.28-1.8-1.52-1.82-1.8-1.9-2.23-2.02-2.82-2.28-3.8-2.82-5.74-7.6-19.83" stroke="#000" stroke-width="2" fill="none"/><path d="M1439 519.43v2l-1.07-.04.08-2z" stroke="#000" stroke-width=".05"/><path d="M1395.12 462.72l9.44 11.66-8.65 3.32z" stroke="#000" stroke-width="2"/><path d="M764.24 184.74l310.58.8 59.4 3.64 1.78.15 49.54 5.2 32.4 4.8 24.8 4.74 20 4.7 16.53 4.65 13.94 4.55 11.94 4.45 10.3 4.35 9 4.25 7.94 4.15 7.02 4.07 6.27 4 5.62 3.9 5.06 3.87 4.6 3.8 4.16 3.78 3.8 3.73 3.47 3.72 3.18 3.7 2.92 3.7 2.68 3.7 2.47 3.73 2.27 3.76 2.08 3.8 1.9 3.86 1.74 3.92 1.58 4 1.42 4.1 1.26 4.22 1.1 4.34.96 4.5.68 4.1" stroke="#000" stroke-width="2" fill="none"/><path d="M764.27 183.74v2h-1.03v-2z" stroke="#000" stroke-width=".05"/><path d="M1399.76 336.64l-5.67-13.88 9.24-.68z" stroke="#000" stroke-width="2"/><path d="M1482 401.1l14.44.3 15.03.93 14.36 1.5 13.5 2 12.6 2.4 11.6 2.72 10.65 2.97 9.74 3.16 8.9 3.3 8.1 3.4 7.38 3.48 6.74 3.53 6.16 3.54 5.64 3.58 5.16 3.58 4.74 3.6 4.35 3.6 4 3.6 3.7 3.62 3.4 3.63 3.15 3.65 2.9 3.67 2.7 3.7 2.48 3.73 2.28 3.77 2.12 3.83 1.93 3.9 1.76 3.95 1.6 4.04 1.45 4.13 1.3 4.25 1.1 4.38.97 4.52.7 4.22" stroke="#000" stroke-width="2" fill="none"/><path d="M1482.05 400.1l-.04 2-1-.03v-2z" stroke="#000" stroke-width=".05"/><path d="M1679.76 530.5l-5.68-13.87 9.25-.7z" stroke="#000" stroke-width="2"/><path d="M1460 1149.9h160v80h-160z" stroke="#000" stroke-width="2" fill="#ffdba9"/><path d="M1476 1149.9v80m128-80v80" stroke="#000" stroke-width="2" fill="none"/><use xlink:href="#T" transform="matrix(1,0,0,1,1485,1154.9048022908023) translate(12.137345679012356 39.48888888888889)"/><path d="M1125 780h117v85c-19.54-14.2-31.7-14.2-39.08-14.2-11.7 0-27.26 14.2-38.96 14.2-7.25 0-19.54 0-38.96-14.2z" stroke="#000" stroke-width="2" fill="#c1e4f7"/><path d="M1131.5 787.5h117v85c-19.54-14.2-31.7-14.2-39.08-14.2-11.7 0-27.26 14.2-38.96 14.2-7.25 0-19.54 0-38.96-14.2z" stroke="#000" stroke-width="2" fill="#c1e4f7"/><path d="M1138 795h117v85c-19.54-14.2-31.7-14.2-39.08-14.2-11.7 0-27.26 14.2-38.96 14.2-7.25 0-19.54 0-38.96-14.2z" stroke="#000" stroke-width="2" fill="#c1e4f7"/><use xlink:href="#U" transform="matrix(1,0,0,1,1143,800) translate(30.089197530864205 21.522222222222222)"/><use xlink:href="#V" transform="matrix(1,0,0,1,1143,800) translate(21.142592592592607 48.45555555555555)"/><path d="M1614 779.3h118.8v85.6c-19.84-14.3-32.2-14.3-39.68-14.3-11.88 0-27.68 14.3-39.56 14.3-7.37 0-19.84 0-39.56-14.3z" stroke="#000" stroke-width="2" fill="#c1e4f7"/><path d="M1620.6 786.84h118.8v85.6c-19.84-14.3-32.2-14.3-39.68-14.3-11.88 0-27.68 14.3-39.56 14.3-7.37 0-19.84 0-39.56-14.3z" stroke="#000" stroke-width="2" fill="#c1e4f7"/><path d="M1627.2 794.4H1746V880c-19.84-14.3-32.2-14.3-39.68-14.3-11.88 0-27.68 14.3-39.56 14.3-7.37 0-19.84 0-39.56-14.3z" stroke="#000" stroke-width="2" fill="#c1e4f7"/><use xlink:href="#U" transform="matrix(1,0,0,1,1632.2,799.3928743069243) translate(31.089197530864205 22.022222222222222)"/><use xlink:href="#V" transform="matrix(1,0,0,1,1632.2,799.3928743069243) translate(22.142592592592607 48.95555555555555)"/><path d="M715.8 969.9l.7 10.95 1.18 11.33 1.54 10.4 1.83 9.65 2.1 8.97 2.34 8.4 2.55 7.87 2.77 7.44 2.97 7.08 3.15 6.72 3.36 6.44 3.58 6.17 3.78 5.96 4 5.76 4.23 5.58 4.5 5.44 4.77 5.3 5.1 5.2 5.43 5.1 5.83 5.04 6.26 4.97 6.76 4.9 7.34 4.9 8 4.83 8.77 4.82 9.7 4.8 10.76 4.8 12.07 4.78 13.67 4.75 15.68 4.73 18.22 4.67 21.58 4.57 26.2 4.42 32.95 4.13 43.94 3.65 66.4 2.66 348.54-.15" stroke="#000" stroke-width="3" fill="none"/><path d="M709.82 970.26l.7 11.03v.11l1.2 11.46v.07l.02.06 1.55 10.53v.11l1.87 9.77v.06l.03.06 2.13 9.1v.05l.03.05 2.37 8.5.02.07.02.06 2.6 8 .02.06v.06l2.82 7.56.02.06.03.06 3 7.18.04.06.03.05 3.22 6.84.03.07.03.06 3.43 6.54.03.06.03.05 3.6 6.3.05.04.03.05 3.84 6.06.04.05.03.06 4.06 5.85.04.05.04.05 4.3 5.68.05.05.03.05 4.58 5.53.05.06.04.05 4.85 5.4.04.05.04.05 5.18 5.3.04.03.05.05 5.54 5.2.04.03.05.05 5.92 5.12.05.04.05.05 6.36 5.04.06.03.05.04 6.88 4.98.05.04.06.03 7.43 4.94.05.03.06.04 8.1 4.9.06.04.05.03 8.9 4.9.04.02.05.03 9.8 4.86.05.04.06.02 10.88 4.85.06.03.06.03 12.2 4.82.05.02.07.02 13.8 4.8.05.02.06.02 15.8 4.76.06.02h.06l18.34 4.72h.06l.06.02 21.7 4.6.07.02h.06l26.3 4.44h.07l.07.02 33.07 4.15.07.02h.07l44.07 3.66h.14l66.53 2.68h.12l348.58-.15" stroke="#000" stroke-width="3" fill="none"/><path d="M717.3 969.83l-2.98.2-.3-4.54 3-.2zM711.32 970.2l-3 .2-.03-.6 3-.2zm-.16-2.68l-3.03-.24-.08-1.4 3-.2z" stroke="#000" stroke-width=".05"/><path d="M1454.15 1189.9l-14.27 4.65v-9.27z" stroke="#000" stroke-width="3" fill="#fff"/><path d="M1189.97 877.68l-.4 15.38-.98 12.27-1.3 9.58-1.5 7.7-1.55 6.28-1.6 5.22-1.63 4.4-1.63 3.77-1.62 3.24-1.6 2.84-1.6 2.48-1.6 2.2-1.57 1.96-1.57 1.75-1.6 1.57-1.6 1.43-1.6 1.28-1.64 1.18-1.68 1.06-1.7.95-1.1.52" stroke="#000" stroke-width="2" fill="none"/><path d="M1190.97 877.74l-2-.06.02-.53 2-.93z" stroke="#000" stroke-width=".05"/><path d="M1144.16 967.9l12.98-7.53 1.95 9.06z" stroke="#000" stroke-width="2"/><path d="M1680 877.65l1.86 151.02-1.56 37.84-2.06 24.66-2.23 17.6-2.23 13.23-2.2 10.28-2.1 8.2-2.02 6.7-1.93 5.52-1.84 4.65-1.76 3.94-1.68 3.38-1.6 2.93-1.57 2.57-1.5 2.26-1.45 2-1.4 1.76-1.38 1.58-1.33 1.42-1.3 1.28-1.3 1.16-1.27 1.05-1.25.94-1.25.87-1.24.8-1.25.7-1.24.66-.84.4" stroke="#000" stroke-width="2" fill="none"/><path d="M1681 877.66l-2 .03v-.6l2-.9z" stroke="#000" stroke-width=".05"/><path d="M1624.2 1189.4l13.37-6.8 1.44 9.15z" stroke="#000" stroke-width="2"/><path d="M1052.58 579.5l1.34 329.57" stroke="#000" stroke-width="2" fill="none"/><path d="M1052.5 564.24l4.7 14.25-9.26.03zM1054 924.34l-4.7-14.25 9.26-.05z" stroke="#000" stroke-width="2"/><path d="M1540 579.5v550.9" stroke="#000" stroke-width="2" fill="none"/><path d="M1540 564.24l4.64 14.27h-9.28zM1540 1145.67l-4.64-14.27h9.28z" stroke="#000" stroke-width="2"/><path d="M100 718.57h534.14V780H100z" stroke="#000" stroke-width="2" fill="#ffdba9"/><path d="M120.54 718.57V780m493.05-61.43V780" stroke="#000" stroke-width="2" fill="none"/><g><use xlink:href="#W" transform="matrix(1,0,0,1,138.8972148541114,723.571468957469) translate(111.6953703703704 30.488888888888887)"/><use xlink:href="#X" transform="matrix(1,0,0,1,138.8972148541114,723.571468957469) translate(224.85277777777776 30.488888888888887)"/></g><path d="M781.3 779.3h307.8v144.65H781.3z" stroke="#000" stroke-opacity="0" stroke-width="2" fill="#fff" fill-opacity="0"/><g><use xlink:href="#Y" transform="matrix(1,0,0,1,786.3125320095916,784.2857344787345) translate(6.183333333333334 22.174305555555552)"/><use xlink:href="#Z" transform="matrix(1,0,0,1,786.3125320095916,784.2857344787345) translate(20.22222222222222 22.174305555555552)"/><use xlink:href="#aa" transform="matrix(1,0,0,1,786.3125320095916,784.2857344787345) translate(177.0839506172839 22.174305555555552)"/><use xlink:href="#ab" transform="matrix(1,0,0,1,786.3125320095916,784.2857344787345) translate(20.22222222222222 49.107638888888886)"/><use xlink:href="#Y" transform="matrix(1,0,0,1,786.3125320095916,784.2857344787345) translate(6.183333333333334 76.04097222222221)"/><use xlink:href="#ac" transform="matrix(1,0,0,1,786.3125320095916,784.2857344787345) translate(20.22222222222222 76.04097222222221)"/><use xlink:href="#ad" transform="matrix(1,0,0,1,786.3125320095916,784.2857344787345) translate(62.61728395061727 76.04097222222221)"/><use xlink:href="#Y" transform="matrix(1,0,0,1,786.3125320095916,784.2857344787345) translate(6.183333333333334 102.97430555555553)"/><use xlink:href="#ae" transform="matrix(1,0,0,1,786.3125320095916,784.2857344787345) translate(20.22222222222222 102.97430555555553)"/><use xlink:href="#af" transform="matrix(1,0,0,1,786.3125320095916,784.2857344787345) translate(97.4685185185185 102.97430555555553)"/><use xlink:href="#ag" transform="matrix(1,0,0,1,786.3125320095916,784.2857344787345) translate(132.31975308641972 102.97430555555553)"/><use xlink:href="#Y" transform="matrix(1,0,0,1,786.3125320095916,784.2857344787345) translate(6.183333333333334 129.90763888888887)"/><use xlink:href="#ah" transform="matrix(1,0,0,1,786.3125320095916,784.2857344787345) translate(20.22222222222222 129.90763888888887)"/><use xlink:href="#ai" transform="matrix(1,0,0,1,786.3125320095916,784.2857344787345) translate(149.7765432098765 129.90763888888887)"/><use xlink:href="#aj" transform="matrix(1,0,0,1,786.3125320095916,784.2857344787345) translate(174.71481481481476 129.90763888888887)"/></g><path d="M815.77 1008.72h100.8v102c-16.83-17.04-27.3-17.04-33.66-17.04-10.07 0-23.48 17.04-33.56 17.04-6.25 0-16.83 0-33.57-17.04z" stroke="#000" stroke-width="2" fill="#c1e4f7"/><path d="M821.37 1017.72h100.8v102c-16.83-17.04-27.3-17.04-33.66-17.04-10.07 0-23.48 17.04-33.56 17.04-6.25 0-16.83 0-33.57-17.04z" stroke="#000" stroke-width="2" fill="#c1e4f7"/><path d="M826.97 1026.72h100.8v102c-16.83-17.04-27.3-17.04-33.66-17.04-10.07 0-23.48 17.04-33.56 17.04-6.25 0-16.83 0-33.57-17.04z" stroke="#000" stroke-width="2" fill="#c1e4f7"/><g><use xlink:href="#ak" transform="matrix(1,0,0,1,831.9745770088053,1031.7182805605796) translate(17.10154320987656 17.955555555555545)"/><use xlink:href="#al" transform="matrix(1,0,0,1,831.9745770088053,1031.7182805605796) translate(45.5 44.88888888888886)"/><use xlink:href="#am" transform="matrix(1,0,0,1,831.9745770088053,1031.7182805605796) translate(15.605246913580267 71.82222222222218)"/></g><path d="M929.78 1068.72h31.72" stroke="#000" stroke-width="2" fill="none"/><path d="M929.8 1069.72h-1.03v-2h1.03z" stroke="#000" stroke-width=".05"/><path d="M976.76 1068.72l-14.26 4.63v-9.27z" stroke="#000" stroke-width="2"/><path d="M400 840h233.2v120H400z" stroke="#000" stroke-width="2" fill="#ffdba9"/><path d="M423.32 840v120m186.56-120v120" stroke="#000" stroke-width="2" fill="none"/><g><use xlink:href="#r" transform="matrix(1,0,0,1,434.1494252849936,845) translate(4.692592592592618 32.55555555555556)"/><use xlink:href="#s" transform="matrix(1,0,0,1,434.1494252849936,845) translate(75.57962962962964 32.55555555555556)"/><use xlink:href="#b" transform="matrix(1,0,0,1,434.1494252849936,845) translate(82.5 59.488888888888894)"/><use xlink:href="#an" transform="matrix(1,0,0,1,434.1494252849936,845) translate(61.36481481481482 86.42222222222222)"/></g><path d="M367 782v.06l-.05.35-.06.35-.1.35-.1.35-.1.35-.14.35-.15.37-.17.37-.2.36-.22.4-.24.4-.3.4-.32.44-.38.46-.43.47-.5.5-.56.54-.67.58-.78.6-.92.68-1.1.73-1.34.8-1.64.9-2.05 1.03-2.62 1.15-3.46 1.37-4.77 1.65-6.98 2.1-11.64 2.96-74.6 16.1-6.96 2.1-4.76 1.65-3.46 1.37-2.62 1.16-.64.33" stroke="#000" stroke-width="2" fill="none"/><path d="M368.05 782.05l-2-.04.02-1h2z" stroke="#000" stroke-width=".05"/><path d="M222.2 836.63l6.32-13.6 6.8 6.3z" stroke="#000" stroke-width="2"/><path d="M367.13 782v.06l.06.35.05.36.1.35.08.36.12.35.13.37.15.36.18.37.2.38.23.4.26.4.28.42.33.43.4.46.42.47.5.5.57.54.66.6.78.6.92.68 1.1.73 1.35.82 1.65.9 2.06 1.02 2.65 1.17 3.47 1.38 4.78 1.66 7 2.1 11.77 3 73.42 15.9 7 2.12 4.78 1.66 3.47 1.37 2.64 1.16.7.35" stroke="#000" stroke-width="2" fill="none"/><path d="M368.1 782l-2 .05-.03-1.05h2z" stroke="#000" stroke-width=".05"/><path d="M511.13 836.63l-13.1-7.32 6.8-6.3z" stroke="#000" stroke-width="2"/><path d="M516.6 962l.12 27.22" stroke="#000" stroke-width="2" fill="none"/><path d="M517.6 962.02h-2V961h2z" stroke="#000" stroke-width=".05"/><path d="M516.8 1004.48l-4.7-14.24 9.26-.04z" stroke="#000" stroke-width="2"/><path d="M220 962v.2l.02.54.05.54.07.53.1.52.1.5.13.48.16.48.17.48.2.47.2.47.24.47.27.46.3.47.32.48.36.48.4.48.43.5.5.5.53.52.6.53.7.54.76.57.86.6 1 .62 1.15.65 1.35.68 1.57.72 1.86.75 2.25.8 2.74.87 3.42.9 4.35.96 5.73 1.03 7.85 1.05 11.43 1.06 18.67.94 47.43.22 90.8-.25 21.9 1.1 13.9 1.3 9.82 1.33 7.32 1.3 5.66 1.26 4.5 1.2 3.66 1.13 3.02 1.08 2.53 1.04 1.37.63" stroke="#000" stroke-width="2" fill="none"/><path d="M220.97 962.06l-2-.06.03-1h2z" stroke="#000" stroke-width=".05"/><path d="M514.3 1005.66l-13.96-5.47 5.88-7.17z" stroke="#000" stroke-width="2"/><path d="M618.8 1068.86l177.47-.13" stroke="#000" stroke-width="2" fill="none"/><path d="M618.83 1069.86h-1.03v-2h1.03z" stroke="#000" stroke-width=".05"/><path d="M811.54 1068.72l-14.26 4.65v-9.27z" stroke="#000" stroke-width="2"/><path d="M424.8 1019.38h200v120c-33.4-20.04-54.2-20.04-66.8-20.04-20 0-46.6 20.04-66.6 20.04-12.4 0-33.4 0-66.6-20.04z" stroke="#000" stroke-width="2" fill="#c1e4f7"/><g><use xlink:href="#u" transform="matrix(1,0,0,1,429.80459770114953,1024.384947227246) translate(15.964814814814815 24.615277777777777)"/><use xlink:href="#v" transform="matrix(1,0,0,1,429.80459770114953,1024.384947227246) translate(95 48.88194444444444)"/><use xlink:href="#w" transform="matrix(1,0,0,1,429.80459770114953,1024.384947227246) translate(70.5929012345679 73.14861111111111)"/></g><path d="M434.14 1030.05h200v120c-33.4-20.04-54.2-20.04-66.8-20.04-20 0-46.6 20.05-66.6 20.05-12.4 0-33.4 0-66.6-20.04z" stroke="#000" stroke-width="2" fill="#c1e4f7"/><g><use xlink:href="#ao" transform="matrix(1,0,0,1,439.1379310344828,1035.0516138939129) translate(1.0450617283950834 23.580555555555552)"/><use xlink:href="#o" transform="matrix(1,0,0,1,439.1379310344828,1035.0516138939129) translate(95 50.513888888888886)"/><use xlink:href="#p" transform="matrix(1,0,0,1,439.1379310344828,1035.0516138939129) translate(67.9108024691358 77.44722222222221)"/></g><path d="M1270 1039.38h160v80h-160z" fill="#ffdba9"/><path d="M1291.33 1039.38h21.34m10.66 0h21.34m10.66 0h21.34m10.66 0h21.34m10.66 0H1430v8.9m0 8.88v17.78m0 8.9v17.77m0 8.9v8.88h-10.67m-10.66 0h-21.34m-10.66 0h-21.34m-10.66 0h-21.34m-10.66 0h-21.34m-10.66 0H1270v-8.88m0-8.9v-17.77m0-8.9v-17.77m0-8.9v-8.88h10.67" stroke="#000" stroke-width="2" fill="none"/><path d="M1286 1039.38v80m128-80v80" fill="none"/><path d="M1286 1039.38v8.9m0 8.88v17.78m0 8.9v17.77m0 8.9v8.88m128-80v8.9m0 8.88v17.78m0 8.9v17.77m0 8.9v8.88" stroke="#000" stroke-width="2" fill="none"/><g><use xlink:href="#ap" transform="matrix(1,0,0,1,1295,1044.384947227246) translate(4.063580246913588 39.48888888888889)"/></g><path d="M1449.27 1076.8l1.7-.5 2.38-.82 2.28-.9 2.22-.96 2.15-1.06 2.1-1.14 2.07-1.23 2.03-1.34 2-1.43 1.97-1.55 1.96-1.67 1.94-1.8 1.94-1.95 1.95-2.13 1.94-2.32 1.94-2.54 1.96-2.8 1.98-3.07 2-3.43 2.02-3.82 2.05-4.3 2.08-4.86 2.1-5.57 2.13-6.43 2.14-7.5 2.14-8.93 2.12-10.8 2.05-13.4 1.9-17.25 1.6-23.68.94-38-.85-85.4" stroke="#000" stroke-width="2" fill="none"/><path d="M1434.2 1078.93l13.48-6.6 1.3 9.18zM1510.03 799l4.78 14.2-9.26.1z" stroke="#000" stroke-width="2"/><path d="M1350 1019.88V814.25" stroke="#000" stroke-width="2" fill="none"/><path d="M1350 1035.15l-4.64-14.27h9.28zM1350 799l4.64 14.25h-9.28z" stroke="#000" stroke-width="2"/><path d="M1360 784.74c0 5.52-4.48 10-10 10s-10-4.48-10-10c0-5.53 4.48-10 10-10s10 4.47 10 10z" stroke="#000" stroke-width="2" fill="#fff"/><path d="M1312 785.33h26.08" stroke="#000" stroke-width="2" fill="none"/><path d="M1312.03 786.33H1311v-2h1.03zM1339 784.75l.24 1.58h-1.18v-2h.98z" stroke="#000" stroke-width=".05"/><path d="M1520 784.74c0 5.52-4.48 10-10 10s-10-4.48-10-10c0-5.53 4.48-10 10-10s10 4.47 10 10z" stroke="#000" stroke-width="2" fill="#fff"/><path d="M1558 784h-36.1" stroke="#000" stroke-width="2" fill="none"/><path d="M1559 785h-1.03v-2h1.03zM1521.94 785h-.97l.04-.25-.22-1.75h1.16z" stroke="#000" stroke-width=".05"/><defs><path d="M24-248c93 1 206-16 204 79-1 75-69 88-152 82V0H24v-248zm52 121c47 0 100 7 100-41 0-47-54-39-100-39v80" id="aq"/><path d="M135-150c-39-12-60 13-60 57V0H25l-1-190h47c2 13-1 29 3 40 6-28 27-53 61-41v41" id="ar"/><path d="M110-194c64 0 96 36 96 99 0 64-35 99-97 99-61 0-95-36-95-99 0-62 34-99 96-99zm-1 164c35 0 45-28 45-65 0-40-10-65-43-65-34 0-45 26-45 65 0 36 10 65 43 65" id="as"/><path d="M115-3C79 11 28 4 28-45v-112H4v-33h27l15-45h31v45h36v33H77v99c-1 23 16 31 38 25v30" id="at"/><path d="M190-63c-7 42-38 67-86 67-59 0-84-38-90-98-12-110 154-137 174-36l-49 2c-2-19-15-32-35-32-30 0-35 28-38 64-6 74 65 87 74 30" id="au"/><path d="M25 0v-261h50V0H25" id="av"/><g id="a"><use transform="matrix(0.06234567901234567,0,0,0.06234567901234567,0,0)" xlink:href="#aq"/><use transform="matrix(0.06234567901234567,0,0,0.06234567901234567,14.96296296296296,0)" xlink:href="#ar"/><use transform="matrix(0.06234567901234567,0,0,0.06234567901234567,23.691358024691354,0)" xlink:href="#as"/><use transform="matrix(0.06234567901234567,0,0,0.06234567901234567,37.34506172839505,0)" xlink:href="#at"/><use transform="matrix(0.06234567901234567,0,0,0.06234567901234567,44.76419753086419,0)" xlink:href="#as"/><use transform="matrix(0.06234567901234567,0,0,0.06234567901234567,58.41790123456789,0)" xlink:href="#au"/><use transform="matrix(0.06234567901234567,0,0,0.06234567901234567,70.88703703703703,0)" xlink:href="#as"/><use transform="matrix(0.06234567901234567,0,0,0.06234567901234567,84.54074074074073,0)" xlink:href="#av"/></g><path d="M233-177c-1 41-23 64-60 70L243 0h-38l-65-103H63V0H30v-248c88 3 205-21 203 71zM63-129c60-2 137 13 137-47 0-61-80-42-137-45v92" id="aw"/><path d="M84 4C-5 8 30-112 23-190h32v120c0 31 7 50 39 49 72-2 45-101 50-169h31l1 190h-30c-1-10 1-25-2-33-11 22-28 36-60 37" id="ax"/><path d="M135-143c-3-34-86-38-87 0 15 53 115 12 119 90S17 21 10-45l28-5c4 36 97 45 98 0-10-56-113-15-118-90-4-57 82-63 122-42 12 7 21 19 24 35" id="ay"/><path d="M59-47c-2 24 18 29 38 22v24C64 9 27 4 27-40v-127H5v-23h24l9-43h21v43h35v23H59v120" id="az"/><g id="c"><use transform="matrix(0.06234567901234567,0,0,0.06234567901234567,0,0)" xlink:href="#aw"/><use transform="matrix(0.06234567901234567,0,0,0.06234567901234567,16.147530864197527,0)" xlink:href="#ax"/><use transform="matrix(0.06234567901234567,0,0,0.06234567901234567,28.61666666666666,0)" xlink:href="#ay"/><use transform="matrix(0.06234567901234567,0,0,0.06234567901234567,39.83888888888888,0)" xlink:href="#az"/></g><path d="M33 0v-248h34V0H33" id="aA"/><path d="M210-169c-67 3-38 105-44 169h-31v-121c0-29-5-50-35-48C34-165 62-65 56 0H25l-1-190h30c1 10-1 24 2 32 10-44 99-50 107 0 11-21 27-35 58-36 85-2 47 119 55 194h-31v-121c0-29-5-49-35-48" id="aB"/><path d="M115-194c55 1 70 41 70 98S169 2 115 4C84 4 66-9 55-30l1 105H24l-1-265h31l2 30c10-21 28-34 59-34zm-8 174c40 0 45-34 45-75s-6-73-45-74c-42 0-51 32-51 76 0 43 10 73 51 73" id="aC"/><path d="M24 0v-261h32V0H24" id="aD"/><path d="M100-194c63 0 86 42 84 106H49c0 40 14 67 53 68 26 1 43-12 49-29l28 8c-11 28-37 45-77 45C44 4 14-33 15-96c1-61 26-98 85-98zm52 81c6-60-76-77-97-28-3 7-6 17-6 28h103" id="aE"/><path d="M117-194c89-4 53 116 60 194h-32v-121c0-31-8-49-39-48C34-167 62-67 57 0H25l-1-190h30c1 10-1 24 2 32 11-22 29-35 61-36" id="aF"/><path d="M141-36C126-15 110 5 73 4 37 3 15-17 15-53c-1-64 63-63 125-63 3-35-9-54-41-54-24 1-41 7-42 31l-33-3c5-37 33-52 76-52 45 0 72 20 72 64v82c-1 20 7 32 28 27v20c-31 9-61-2-59-35zM48-53c0 20 12 33 32 33 41-3 63-29 60-74-43 2-92-5-92 41" id="aG"/><path d="M24-231v-30h32v30H24zM24 0v-190h32V0H24" id="aH"/><path d="M100-194c62-1 85 37 85 99 1 63-27 99-86 99S16-35 15-95c0-66 28-99 85-99zM99-20c44 1 53-31 53-75 0-43-8-75-51-75s-53 32-53 75 10 74 51 75" id="aI"/><g id="d"><use transform="matrix(0.06234567901234567,0,0,0.06234567901234567,0,0)" xlink:href="#aA"/><use transform="matrix(0.06234567901234567,0,0,0.06234567901234567,6.234567901234566,0)" xlink:href="#aB"/><use transform="matrix(0.06234567901234567,0,0,0.06234567901234567,24.87592592592592,0)" xlink:href="#aC"/><use transform="matrix(0.06234567901234567,0,0,0.06234567901234567,37.34506172839505,0)" xlink:href="#aD"/><use transform="matrix(0.06234567901234567,0,0,0.06234567901234567,42.27037037037036,0)" xlink:href="#aE"/><use transform="matrix(0.06234567901234567,0,0,0.06234567901234567,54.73950617283949,0)" xlink:href="#aB"/><use transform="matrix(0.06234567901234567,0,0,0.06234567901234567,73.38086419753084,0)" xlink:href="#aE"/><use transform="matrix(0.06234567901234567,0,0,0.06234567901234567,85.84999999999997,0)" xlink:href="#aF"/><use transform="matrix(0.06234567901234567,0,0,0.06234567901234567,98.3191358024691,0)" xlink:href="#az"/><use transform="matrix(0.06234567901234567,0,0,0.06234567901234567,104.55370370370368,0)" xlink:href="#aG"/><use transform="matrix(0.06234567901234567,0,0,0.06234567901234567,117.0228395061728,0)" xlink:href="#az"/><use transform="matrix(0.06234567901234567,0,0,0.06234567901234567,123.25740740740737,0)" xlink:href="#aH"/><use transform="matrix(0.06234567901234567,0,0,0.06234567901234567,128.1827160493827,0)" xlink:href="#aI"/><use transform="matrix(0.06234567901234567,0,0,0.06234567901234567,140.65185185185183,0)" xlink:href="#aF"/></g><path d="M185-189c-5-48-123-54-124 2 14 75 158 14 163 119 3 78-121 87-175 55-17-10-28-26-33-46l33-7c5 56 141 63 141-1 0-78-155-14-162-118-5-82 145-84 179-34 5 7 8 16 11 25" id="aJ"/><path d="M101-234c-31-9-42 10-38 44h38v23H63V0H32v-167H5v-23h27c-7-52 17-82 69-68v24" id="aK"/><path d="M206 0h-36l-40-164L89 0H53L-1-190h32L70-26l43-164h34l41 164 42-164h31" id="aL"/><path d="M114-163C36-179 61-72 57 0H25l-1-190h30c1 12-1 29 2 39 6-27 23-49 58-41v29" id="aM"/><g id="e"><use transform="matrix(0.06234567901234567,0,0,0.06234567901234567,0,0)" xlink:href="#aJ"/><use transform="matrix(0.06234567901234567,0,0,0.06234567901234567,14.96296296296296,0)" xlink:href="#aI"/><use transform="matrix(0.06234567901234567,0,0,0.06234567901234567,27.432098765432094,0)" xlink:href="#aK"/><use transform="matrix(0.06234567901234567,0,0,0.06234567901234567,33.66666666666666,0)" xlink:href="#az"/><use transform="matrix(0.06234567901234567,0,0,0.06234567901234567,39.90123456790123,0)" xlink:href="#aL"/><use transform="matrix(0.06234567901234567,0,0,0.06234567901234567,56.048765432098755,0)" xlink:href="#aG"/><use transform="matrix(0.06234567901234567,0,0,0.06234567901234567,68.51790123456789,0)" xlink:href="#aM"/><use transform="matrix(0.06234567901234567,0,0,0.06234567901234567,75.93703703703702,0)" xlink:href="#aE"/></g><path d="M177-190C167-65 218 103 67 71c-23-6-38-20-44-43l32-5c15 47 100 32 89-28v-30C133-14 115 1 83 1 29 1 15-40 15-95c0-56 16-97 71-98 29-1 48 16 59 35 1-10 0-23 2-32h30zM94-22c36 0 50-32 50-73 0-42-14-75-50-75-39 0-46 34-46 75s6 73 46 73" id="aN"/><g id="f"><use transform="matrix(0.06234567901234567,0,0,0.06234567901234567,0,0)" xlink:href="#aE"/><use transform="matrix(0.06234567901234567,0,0,0.06234567901234567,12.469135802469133,0)" xlink:href="#aF"/><use transform="matrix(0.06234567901234567,0,0,0.06234567901234567,24.938271604938265,0)" xlink:href="#aN"/><use transform="matrix(0.06234567901234567,0,0,0.06234567901234567,37.4074074074074,0)" xlink:href="#aH"/><use transform="matrix(0.06234567901234567,0,0,0.06234567901234567,42.332716049382704,0)" xlink:href="#aF"/><use transform="matrix(0.06234567901234567,0,0,0.06234567901234567,54.801851851851836,0)" xlink:href="#aE"/><use transform="matrix(0.06234567901234567,0,0,0.06234567901234567,67.27098765432098,0)" xlink:href="#aE"/><use transform="matrix(0.06234567901234567,0,0,0.06234567901234567,79.74012345679012,0)" xlink:href="#aM"/></g><path d="M232-93c-1 65-40 97-104 97C67 4 28-28 28-90v-158h33c8 89-33 224 67 224 102 0 64-133 71-224h33v155" id="aO"/><g id="g"><use transform="matrix(0.06234567901234567,0,0,0.06234567901234567,0,0)" xlink:href="#aO"/><use transform="matrix(0.06234567901234567,0,0,0.06234567901234567,16.147530864197527,0)" xlink:href="#aF"/><use transform="matrix(0.06234567901234567,0,0,0.06234567901234567,28.61666666666666,0)" xlink:href="#aH"/><use transform="matrix(0.06234567901234567,0,0,0.06234567901234567,33.541975308641966,0)" xlink:href="#az"/></g><g id="h"><use transform="matrix(0.06234567901234567,0,0,0.06234567901234567,0,0)" xlink:href="#az"/><use transform="matrix(0.06234567901234567,0,0,0.06234567901234567,6.234567901234566,0)" xlink:href="#aE"/><use transform="matrix(0.06234567901234567,0,0,0.06234567901234567,18.7037037037037,0)" xlink:href="#ay"/><use transform="matrix(0.06234567901234567,0,0,0.06234567901234567,29.925925925925917,0)" xlink:href="#az"/><use transform="matrix(0.06234567901234567,0,0,0.06234567901234567,36.16049382716048,0)" xlink:href="#ay"/></g><path d="M30-248c87 1 191-15 191 75 0 78-77 80-158 76V0H30v-248zm33 125c57 0 124 11 124-50 0-59-68-47-124-48v98" id="aP"/><path d="M160-131c35 5 61 23 61 61C221 17 115-2 30 0v-248c76 3 177-17 177 60 0 33-19 50-47 57zm-97-11c50-1 110 9 110-42 0-47-63-36-110-37v79zm0 115c55-2 124 14 124-45 0-56-70-42-124-44v89" id="aQ"/><path d="M16-82v-28h88v28H16" id="aR"/><g id="i"><use transform="matrix(0.06234567901234567,0,0,0.06234567901234567,0,0)" xlink:href="#aP"/><use transform="matrix(0.06234567901234567,0,0,0.06234567901234567,14.96296296296296,0)" xlink:href="#aQ"/><use transform="matrix(0.06234567901234567,0,0,0.06234567901234567,29.92592592592592,0)" xlink:href="#aR"/><use transform="matrix(0.06234567901234567,0,0,0.06234567901234567,37.34506172839505,0)" xlink:href="#az"/><use transform="matrix(0.06234567901234567,0,0,0.06234567901234567,43.57962962962962,0)" xlink:href="#aE"/><use transform="matrix(0.06234567901234567,0,0,0.06234567901234567,56.048765432098755,0)" xlink:href="#ay"/><use transform="matrix(0.06234567901234567,0,0,0.06234567901234567,67.27098765432098,0)" xlink:href="#az"/><use transform="matrix(0.06234567901234567,0,0,0.06234567901234567,73.50555555555555,0)" xlink:href="#ay"/></g><path d="M143 4C61 4 22-44 18-125c-5-107 100-154 193-111 17 8 29 25 37 43l-32 9c-13-25-37-40-76-40-61 0-88 39-88 99 0 61 29 100 91 101 35 0 62-11 79-27v-45h-74v-28h105v86C228-13 192 4 143 4" id="aS"/><g id="j"><use transform="matrix(0.06234567901234567,0,0,0.06234567901234567,0,0)" xlink:href="#aS"/><use transform="matrix(0.06234567901234567,0,0,0.06234567901234567,17.456790123456788,0)" xlink:href="#aI"/></g><g id="k"><use transform="matrix(0.06234567901234567,0,0,0.06234567901234567,0,0)" xlink:href="#aA"/><use transform="matrix(0.06234567901234567,0,0,0.06234567901234567,6.234567901234566,0)" xlink:href="#aB"/><use transform="matrix(0.06234567901234567,0,0,0.06234567901234567,24.87592592592592,0)" xlink:href="#aC"/><use transform="matrix(0.06234567901234567,0,0,0.06234567901234567,37.34506172839505,0)" xlink:href="#aD"/><use transform="matrix(0.06234567901234567,0,0,0.06234567901234567,42.27037037037036,0)" xlink:href="#aE"/><use transform="matrix(0.06234567901234567,0,0,0.06234567901234567,54.73950617283949,0)" xlink:href="#aB"/><use transform="matrix(0.06234567901234567,0,0,0.06234567901234567,73.38086419753084,0)" xlink:href="#aE"/><use transform="matrix(0.06234567901234567,0,0,0.06234567901234567,85.84999999999997,0)" xlink:href="#aF"/><use transform="matrix(0.06234567901234567,0,0,0.06234567901234567,98.3191358024691,0)" xlink:href="#az"/><use transform="matrix(0.06234567901234567,0,0,0.06234567901234567,104.55370370370368,0)" xlink:href="#aG"/><use transform="matrix(0.06234567901234567,0,0,0.06234567901234567,117.0228395061728,0)" xlink:href="#az"/><use transform="matrix(0.06234567901234567,0,0,0.06234567901234567,123.25740740740737,0)" xlink:href="#aH"/><use transform="matrix(0.06234567901234567,0,0,0.06234567901234567,128.1827160493827,0)" xlink:href="#aI"/><use transform="matrix(0.06234567901234567,0,0,0.06234567901234567,140.65185185185183,0)" xlink:href="#aF"/></g><path d="M230 0l2-204L168 0h-37L68-204 70 0H24v-248h70l56 185 57-185h69V0h-46" id="aT"/><path d="M182-130c37 4 62 22 62 59C244 23 116-4 24 0v-248c84 5 203-23 205 63 0 31-19 50-47 55zM76-148c40-3 101 13 101-30 0-44-60-28-101-31v61zm0 110c48-3 116 14 116-37 0-48-69-32-116-35v72" id="aU"/><path d="M136-208V0H84v-208H4v-40h212v40h-80" id="aV"/><path d="M14-72v-43h91v43H14" id="aW"/><path d="M240-174c0 40-23 61-54 70L253 0h-59l-57-94H76V0H24v-248c93 4 217-23 216 74zM76-134c48-2 112 12 112-38 0-48-66-32-112-35v73" id="aX"/><path d="M85 4C-2 5 27-109 22-190h50c7 57-23 150 33 157 60-5 35-97 40-157h50l1 190h-47c-2-12 1-28-3-38-12 25-28 42-61 42" id="aY"/><path d="M137-138c1-29-70-34-71-4 15 46 118 7 119 86 1 83-164 76-172 9l43-7c4 19 20 25 44 25 33 8 57-30 24-41C81-84 22-81 20-136c-2-80 154-74 161-7" id="aZ"/><g id="l"><use transform="matrix(0.06234567901234567,0,0,0.06234567901234567,0,0)" xlink:href="#aT"/><use transform="matrix(0.06234567901234567,0,0,0.06234567901234567,18.641358024691353,0)" xlink:href="#aU"/><use transform="matrix(0.06234567901234567,0,0,0.06234567901234567,34.78888888888888,0)" xlink:href="#aV"/><use transform="matrix(0.06234567901234567,0,0,0.06234567901234567,47.195679012345664,0)" xlink:href="#aW"/><use transform="matrix(0.06234567901234567,0,0,0.06234567901234567,54.6148148148148,0)" xlink:href="#aX"/><use transform="matrix(0.06234567901234567,0,0,0.06234567901234567,70.76234567901233,0)" xlink:href="#aY"/><use transform="matrix(0.06234567901234567,0,0,0.06234567901234567,84.41604938271603,0)" xlink:href="#aZ"/><use transform="matrix(0.06234567901234567,0,0,0.06234567901234567,96.88518518518515,0)" xlink:href="#at"/></g><path d="M199 0l-22-63H83L61 0H9l90-248h61L250 0h-51zm-33-102l-36-108c-10 38-24 72-36 108h72" id="ba"/><path d="M135-194c52 0 70 43 70 98 0 56-19 99-73 100-30 1-46-15-58-35L72 0H24l1-261h50v104c11-23 29-37 60-37zM114-30c31 0 40-27 40-66 0-37-7-63-39-63s-41 28-41 65c0 36 8 64 40 64" id="bb"/><path d="M133-34C117-15 103 5 69 4 32 3 11-16 11-54c-1-60 55-63 116-61 1-26-3-47-28-47-18 1-26 9-28 27l-52-2c7-38 36-58 82-57s74 22 75 68l1 82c-1 14 12 18 25 15v27c-30 8-71 5-69-32zm-48 3c29 0 43-24 42-57-32 0-66-3-65 30 0 17 8 27 23 27" id="bc"/><path d="M25-224v-37h50v37H25zM25 0v-190h50V0H25" id="bd"/><path d="M135-194c87-1 58 113 63 194h-50c-7-57 23-157-34-157-59 0-34 97-39 157H25l-1-190h47c2 12-1 28 3 38 12-26 28-41 61-42" id="be"/><g id="m"><use transform="matrix(0.06234567901234567,0,0,0.06234567901234567,0,0)" xlink:href="#ba"/><use transform="matrix(0.06234567901234567,0,0,0.06234567901234567,16.147530864197527,0)" xlink:href="#bb"/><use transform="matrix(0.06234567901234567,0,0,0.06234567901234567,29.80123456790123,0)" xlink:href="#aZ"/><use transform="matrix(0.06234567901234567,0,0,0.06234567901234567,42.27037037037036,0)" xlink:href="#at"/><use transform="matrix(0.06234567901234567,0,0,0.06234567901234567,49.689506172839494,0)" xlink:href="#ar"/><use transform="matrix(0.06234567901234567,0,0,0.06234567901234567,58.417901234567886,0)" xlink:href="#bc"/><use transform="matrix(0.06234567901234567,0,0,0.06234567901234567,70.88703703703702,0)" xlink:href="#au"/><use transform="matrix(0.06234567901234567,0,0,0.06234567901234567,83.35617283950614,0)" xlink:href="#at"/><use transform="matrix(0.06234567901234567,0,0,0.06234567901234567,90.77530864197527,0)" xlink:href="#bd"/><use transform="matrix(0.06234567901234567,0,0,0.06234567901234567,97.00987654320984,0)" xlink:href="#as"/><use transform="matrix(0.06234567901234567,0,0,0.06234567901234567,110.66358024691354,0)" xlink:href="#be"/></g><path d="M88-194c31-1 46 15 58 34l-1-101h50l1 261h-48c-2-10 0-23-3-31C134-8 116 4 84 4 32 4 16-41 15-95c0-56 19-97 73-99zm17 164c33 0 40-30 41-66 1-37-9-64-41-64s-38 30-39 65c0 43 13 65 39 65" id="bf"/><path d="M185-48c-13 30-37 53-82 52C43 2 14-33 14-96s30-98 90-98c62 0 83 45 84 108H66c0 31 8 55 39 56 18 0 30-7 34-22zm-45-69c5-46-57-63-70-21-2 6-4 13-4 21h74" id="bg"/><g id="n"><use transform="matrix(0.06234567901234567,0,0,0.06234567901234567,0,0)" xlink:href="#aT"/><use transform="matrix(0.06234567901234567,0,0,0.06234567901234567,18.641358024691353,0)" xlink:href="#as"/><use transform="matrix(0.06234567901234567,0,0,0.06234567901234567,32.295061728395055,0)" xlink:href="#bf"/><use transform="matrix(0.06234567901234567,0,0,0.06234567901234567,45.94876543209875,0)" xlink:href="#bg"/><use transform="matrix(0.06234567901234567,0,0,0.06234567901234567,58.417901234567886,0)" xlink:href="#av"/></g><path d="M127-220V0H93v-220H8v-28h204v28h-85" id="bh"/><path d="M30 0v-248h33v221h125V0H30" id="bi"/><path d="M205 0l-28-72H64L36 0H1l101-248h38L239 0h-34zm-38-99l-47-123c-12 45-31 82-46 123h93" id="bj"/><path d="M118-107v75H92v-75H18v-26h74v-75h26v75h74v26h-74" id="bk"/><g id="p"><use transform="matrix(0.06234567901234567,0,0,0.06234567901234567,0,0)" xlink:href="#bh"/><use transform="matrix(0.06234567901234567,0,0,0.06234567901234567,13.653703703703702,0)" xlink:href="#bi"/><use transform="matrix(0.06234567901234567,0,0,0.06234567901234567,26.122839506172834,0)" xlink:href="#bj"/><use transform="matrix(0.06234567901234567,0,0,0.06234567901234567,41.08580246913579,0)" xlink:href="#bk"/></g><g id="q"><use transform="matrix(0.06234567901234567,0,0,0.06234567901234567,0,0)" xlink:href="#aV"/><use transform="matrix(0.06234567901234567,0,0,0.06234567901234567,11.970370370370368,0)" xlink:href="#bg"/><use transform="matrix(0.06234567901234567,0,0,0.06234567901234567,24.4395061728395,0)" xlink:href="#aZ"/><use transform="matrix(0.06234567901234567,0,0,0.06234567901234567,36.90864197530863,0)" xlink:href="#at"/><use transform="matrix(0.06234567901234567,0,0,0.06234567901234567,44.32777777777777,0)" xlink:href="#aZ"/></g><g id="r"><use transform="matrix(0.06234567901234567,0,0,0.06234567901234567,0,0)" xlink:href="#aT"/><use transform="matrix(0.06234567901234567,0,0,0.06234567901234567,18.641358024691353,0)" xlink:href="#as"/><use transform="matrix(0.06234567901234567,0,0,0.06234567901234567,32.295061728395055,0)" xlink:href="#bf"/><use transform="matrix(0.06234567901234567,0,0,0.06234567901234567,45.94876543209875,0)" xlink:href="#bg"/><use transform="matrix(0.06234567901234567,0,0,0.06234567901234567,58.417901234567886,0)" xlink:href="#av"/></g><path d="M114-157C55-157 80-60 75 0H25v-261h50l-1 109c12-26 28-41 61-42 86-1 58 113 63 194h-50c-7-57 23-157-34-157" id="bl"/><path d="M147 0L96-86 75-71V0H25v-261h50v150l67-79h53l-66 74L201 0h-54" id="bm"/><g id="s"><use transform="matrix(0.06234567901234567,0,0,0.06234567901234567,0,0)" xlink:href="#au"/><use transform="matrix(0.06234567901234567,0,0,0.06234567901234567,12.469135802469133,0)" xlink:href="#bl"/><use transform="matrix(0.06234567901234567,0,0,0.06234567901234567,26.122839506172834,0)" xlink:href="#bg"/><use transform="matrix(0.06234567901234567,0,0,0.06234567901234567,38.59197530864196,0)" xlink:href="#au"/><use transform="matrix(0.06234567901234567,0,0,0.06234567901234567,51.061111111111096,0)" xlink:href="#bm"/><use transform="matrix(0.06234567901234567,0,0,0.06234567901234567,63.53024691358023,0)" xlink:href="#bg"/><use transform="matrix(0.06234567901234567,0,0,0.06234567901234567,75.99938271604935,0)" xlink:href="#ar"/></g><path d="M96-169c-40 0-48 33-48 73s9 75 48 75c24 0 41-14 43-38l32 2c-6 37-31 61-74 61-59 0-76-41-82-99-10-93 101-131 147-64 4 7 5 14 7 22l-32 3c-4-21-16-35-41-35" id="bn"/><path d="M106-169C34-169 62-67 57 0H25v-261h32l-1 103c12-21 28-36 61-36 89 0 53 116 60 194h-32v-121c2-32-8-49-39-48" id="bo"/><g id="t"><use transform="matrix(0.06234567901234567,0,0,0.06234567901234567,0,0)" xlink:href="#bj"/><use transform="matrix(0.06234567901234567,0,0,0.06234567901234567,14.96296296296296,0)" xlink:href="#aC"/><use transform="matrix(0.06234567901234567,0,0,0.06234567901234567,27.432098765432094,0)" xlink:href="#aG"/><use transform="matrix(0.06234567901234567,0,0,0.06234567901234567,39.90123456790123,0)" xlink:href="#aD"/><use transform="matrix(0.06234567901234567,0,0,0.06234567901234567,44.82654320987653,0)" xlink:href="#aG"/><use transform="matrix(0.06234567901234567,0,0,0.06234567901234567,57.295679012345666,0)" xlink:href="#bn"/><use transform="matrix(0.06234567901234567,0,0,0.06234567901234567,68.51790123456789,0)" xlink:href="#bo"/><use transform="matrix(0.06234567901234567,0,0,0.06234567901234567,80.98703703703703,0)" xlink:href="#aE"/></g><path d="M67-125c0 53 21 87 73 88 37 1 54-22 65-47l45 17C233-25 199 4 140 4 58 4 20-42 15-125 8-235 124-281 211-232c18 10 29 29 36 50l-46 12c-8-25-30-41-62-41-52 0-71 34-72 86" id="bp"/><path d="M144 0l-44-69L55 0H2l70-98-66-92h53l41 62 40-62h54l-67 91 71 99h-54" id="bq"/><path d="M220-157c-53 9-28 100-34 157h-49v-107c1-27-5-49-29-50C55-147 81-57 75 0H25l-1-190h47c2 12-1 28 3 38 10-53 101-56 108 0 13-22 24-43 59-42 82 1 51 116 57 194h-49v-107c-1-25-5-48-29-50" id="br"/><path d="M135-194c53 0 70 44 70 98 0 56-19 98-73 100-31 1-45-17-59-34 3 33 2 69 2 105H25l-1-265h48c2 10 0 23 3 31 11-24 29-35 60-35zM114-30c33 0 39-31 40-66 0-38-9-64-40-64-56 0-55 130 0 130" id="bs"/><g id="u"><use transform="matrix(0.056172839506172835,0,0,0.056172839506172835,0,0)" xlink:href="#bp"/><use transform="matrix(0.056172839506172835,0,0,0.056172839506172835,14.548765432098763,0)" xlink:href="#as"/><use transform="matrix(0.056172839506172835,0,0,0.056172839506172835,26.850617283950612,0)" xlink:href="#aY"/><use transform="matrix(0.056172839506172835,0,0,0.056172839506172835,39.15246913580246,0)" xlink:href="#be"/><use transform="matrix(0.056172839506172835,0,0,0.056172839506172835,51.45432098765431,0)" xlink:href="#at"/><use transform="matrix(0.056172839506172835,0,0,0.056172839506172835,58.138888888888886,0)" xlink:href="#bg"/><use transform="matrix(0.056172839506172835,0,0,0.056172839506172835,69.37345679012344,0)" xlink:href="#ar"/><use transform="matrix(0.056172839506172835,0,0,0.056172839506172835,77.23765432098764,0)" xlink:href="#bg"/><use transform="matrix(0.056172839506172835,0,0,0.056172839506172835,88.47222222222221,0)" xlink:href="#bq"/><use transform="matrix(0.056172839506172835,0,0,0.056172839506172835,99.70679012345678,0)" xlink:href="#bc"/><use transform="matrix(0.056172839506172835,0,0,0.056172839506172835,110.94135802469135,0)" xlink:href="#br"/><use transform="matrix(0.056172839506172835,0,0,0.056172839506172835,128.91666666666666,0)" xlink:href="#bs"/><use transform="matrix(0.056172839506172835,0,0,0.056172839506172835,141.21851851851852,0)" xlink:href="#av"/><use transform="matrix(0.056172839506172835,0,0,0.056172839506172835,146.8358024691358,0)" xlink:href="#bg"/></g><g id="w"><use transform="matrix(0.056172839506172835,0,0,0.056172839506172835,0,0)" xlink:href="#bh"/><use transform="matrix(0.056172839506172835,0,0,0.056172839506172835,12.30185185185185,0)" xlink:href="#bi"/><use transform="matrix(0.056172839506172835,0,0,0.056172839506172835,23.536419753086417,0)" xlink:href="#bj"/><use transform="matrix(0.056172839506172835,0,0,0.056172839506172835,37.0179012345679,0)" xlink:href="#bk"/></g><g id="x"><use transform="matrix(0.06234567901234567,0,0,0.06234567901234567,0,0)" xlink:href="#aw"/><use transform="matrix(0.06234567901234567,0,0,0.06234567901234567,16.147530864197527,0)" xlink:href="#aE"/><use transform="matrix(0.06234567901234567,0,0,0.06234567901234567,28.61666666666666,0)" xlink:href="#ay"/><use transform="matrix(0.06234567901234567,0,0,0.06234567901234567,39.83888888888888,0)" xlink:href="#aE"/><use transform="matrix(0.06234567901234567,0,0,0.06234567901234567,52.308024691358014,0)" xlink:href="#aG"/><use transform="matrix(0.06234567901234567,0,0,0.06234567901234567,64.77716049382715,0)" xlink:href="#aM"/><use transform="matrix(0.06234567901234567,0,0,0.06234567901234567,72.19629629629628,0)" xlink:href="#bn"/><use transform="matrix(0.06234567901234567,0,0,0.06234567901234567,83.4185185185185,0)" xlink:href="#bo"/></g><path fill="#19967d" d="M205 0l-28-72H64L36 0H1l101-248h38L239 0h-34zm-38-99l-47-123c-12 45-31 82-46 123h93" id="bt"/><path fill="#19967d" d="M84 4C-5 8 30-112 23-190h32v120c0 31 7 50 39 49 72-2 45-101 50-169h31l1 190h-30c-1-10 1-25-2-33-11 22-28 36-60 37" id="bu"/><path fill="#19967d" d="M59-47c-2 24 18 29 38 22v24C64 9 27 4 27-40v-127H5v-23h24l9-43h21v43h35v23H59v120" id="bv"/><path fill="#19967d" d="M100-194c62-1 85 37 85 99 1 63-27 99-86 99S16-35 15-95c0-66 28-99 85-99zM99-20c44 1 53-31 53-75 0-43-8-75-51-75s-53 32-53 75 10 74 51 75" id="bw"/><path fill="#19967d" d="M210-169c-67 3-38 105-44 169h-31v-121c0-29-5-50-35-48C34-165 62-65 56 0H25l-1-190h30c1 10-1 24 2 32 10-44 99-50 107 0 11-21 27-35 58-36 85-2 47 119 55 194h-31v-121c0-29-5-49-35-48" id="bx"/><path fill="#19967d" d="M141-36C126-15 110 5 73 4 37 3 15-17 15-53c-1-64 63-63 125-63 3-35-9-54-41-54-24 1-41 7-42 31l-33-3c5-37 33-52 76-52 45 0 72 20 72 64v82c-1 20 7 32 28 27v20c-31 9-61-2-59-35zM48-53c0 20 12 33 32 33 41-3 63-29 60-74-43 2-92-5-92 41" id="by"/><path fill="#19967d" d="M24-231v-30h32v30H24zM24 0v-190h32V0H24" id="bz"/><path fill="#19967d" d="M96-169c-40 0-48 33-48 73s9 75 48 75c24 0 41-14 43-38l32 2c-6 37-31 61-74 61-59 0-76-41-82-99-10-93 101-131 147-64 4 7 5 14 7 22l-32 3c-4-21-16-35-41-35" id="bA"/><path fill="#19967d" d="M33-154v-36h34v36H33zM33 0v-36h34V0H33" id="bB"/><g id="y"><use transform="matrix(0.06234567901234565,0,0,0.06234567901234565,0,0)" xlink:href="#bt"/><use transform="matrix(0.06234567901234565,0,0,0.06234567901234565,14.962962962962957,0)" xlink:href="#bu"/><use transform="matrix(0.06234567901234565,0,0,0.06234567901234565,27.432098765432087,0)" xlink:href="#bv"/><use transform="matrix(0.06234567901234565,0,0,0.06234567901234565,33.66666666666665,0)" xlink:href="#bw"/><use transform="matrix(0.06234567901234565,0,0,0.06234567901234565,46.13580246913578,0)" xlink:href="#bx"/><use transform="matrix(0.06234567901234565,0,0,0.06234567901234565,64.77716049382713,0)" xlink:href="#by"/><use transform="matrix(0.06234567901234565,0,0,0.06234567901234565,77.24629629629625,0)" xlink:href="#bv"/><use transform="matrix(0.06234567901234565,0,0,0.06234567901234565,83.48086419753082,0)" xlink:href="#bz"/><use transform="matrix(0.06234567901234565,0,0,0.06234567901234565,88.40617283950613,0)" xlink:href="#bA"/><use transform="matrix(0.06234567901234565,0,0,0.06234567901234565,99.62839506172834,0)" xlink:href="#bB"/></g><path fill="#19967d" d="M62-168c30 0 50 19 50 48S92-70 62-70c-29 0-48-21-48-50s20-48 48-48" id="bC"/><use transform="matrix(0.06234567901234565,0,0,0.06234567901234565,0,0)" xlink:href="#bC" id="z"/><path fill="#19967d" d="M85-194c31 0 48 13 60 33l-1-100h32l1 261h-30c-2-10 0-23-3-31C134-8 116 4 85 4 32 4 16-35 15-94c0-66 23-100 70-100zm9 24c-40 0-46 34-46 75 0 40 6 74 45 74 42 0 51-32 51-76 0-42-9-74-50-73" id="bD"/><path fill="#19967d" d="M100-194c63 0 86 42 84 106H49c0 40 14 67 53 68 26 1 43-12 49-29l28 8c-11 28-37 45-77 45C44 4 14-33 15-96c1-61 26-98 85-98zm52 81c6-60-76-77-97-28-3 7-6 17-6 28h103" id="bE"/><path fill="#19967d" d="M24 0v-261h32V0H24" id="bF"/><g id="A"><use transform="matrix(0.06234567901234565,0,0,0.06234567901234565,0,0)" xlink:href="#bx"/><use transform="matrix(0.06234567901234565,0,0,0.06234567901234565,18.64135802469135,0)" xlink:href="#bw"/><use transform="matrix(0.06234567901234565,0,0,0.06234567901234565,31.110493827160482,0)" xlink:href="#bD"/><use transform="matrix(0.06234567901234565,0,0,0.06234567901234565,43.579629629629615,0)" xlink:href="#bE"/><use transform="matrix(0.06234567901234565,0,0,0.06234567901234565,56.04876543209875,0)" xlink:href="#bF"/></g><path fill="#19967d" d="M117-194c89-4 53 116 60 194h-32v-121c0-31-8-49-39-48C34-167 62-67 57 0H25l-1-190h30c1 10-1 24 2 32 11-22 29-35 61-36" id="bG"/><path fill="#19967d" d="M135-143c-3-34-86-38-87 0 15 53 115 12 119 90S17 21 10-45l28-5c4 36 97 45 98 0-10-56-113-15-118-90-4-57 82-63 122-42 12 7 21 19 24 35" id="bH"/><g id="B"><use transform="matrix(0.06234567901234565,0,0,0.06234567901234565,0,0)" xlink:href="#bz"/><use transform="matrix(0.06234567901234565,0,0,0.06234567901234565,4.925308641975307,0)" xlink:href="#bG"/><use transform="matrix(0.06234567901234565,0,0,0.06234567901234565,17.39444444444444,0)" xlink:href="#bH"/><use transform="matrix(0.06234567901234565,0,0,0.06234567901234565,28.616666666666656,0)" xlink:href="#bv"/><use transform="matrix(0.06234567901234565,0,0,0.06234567901234565,34.85123456790122,0)" xlink:href="#by"/><use transform="matrix(0.06234567901234565,0,0,0.06234567901234565,47.320370370370355,0)" xlink:href="#bG"/><use transform="matrix(0.06234567901234565,0,0,0.06234567901234565,59.78950617283949,0)" xlink:href="#bv"/><use transform="matrix(0.06234567901234565,0,0,0.06234567901234565,66.02407407407405,0)" xlink:href="#bz"/><use transform="matrix(0.06234567901234565,0,0,0.06234567901234565,70.94938271604936,0)" xlink:href="#by"/><use transform="matrix(0.06234567901234565,0,0,0.06234567901234565,83.41851851851848,0)" xlink:href="#bv"/><use transform="matrix(0.06234567901234565,0,0,0.06234567901234565,89.65308641975305,0)" xlink:href="#bz"/><use transform="matrix(0.06234567901234565,0,0,0.06234567901234565,94.57839506172836,0)" xlink:href="#bw"/><use transform="matrix(0.06234567901234565,0,0,0.06234567901234565,107.04753086419748,0)" xlink:href="#bG"/></g><path fill="#19967d" d="M234-2c-28 10-62 0-77-18C117 19 8 12 13-65c3-43 29-61 60-76-25-40-17-114 47-108 35 3 59 15 59 50 0 44-40 53-71 69 14 26 32 50 51 72 14-21 24-43 30-72l26 8c-9 33-21 57-38 82 13 13 33 22 57 15v23zM97-151c25-10 52-18 56-48-1-18-13-29-33-29-42 0-39 50-23 77zM42-66c-3 51 71 58 98 28-20-24-41-51-56-80-23 10-40 24-42 52" id="bI"/><use transform="matrix(0.06234567901234565,0,0,0.06234567901234565,0,0)" xlink:href="#bI" id="C"/><g id="D"><use transform="matrix(0.06234567901234565,0,0,0.06234567901234565,0,0)" xlink:href="#bv"/><use transform="matrix(0.06234567901234565,0,0,0.06234567901234565,6.234567901234565,0)" xlink:href="#bE"/><use transform="matrix(0.06234567901234565,0,0,0.06234567901234565,18.703703703703695,0)" xlink:href="#bH"/><use transform="matrix(0.06234567901234565,0,0,0.06234567901234565,29.925925925925913,0)" xlink:href="#bv"/></g><path fill="#19967d" d="M115-194c53 0 69 39 70 98 0 66-23 100-70 100C84 3 66-7 56-30L54 0H23l1-261h32v101c10-23 28-34 59-34zm-8 174c40 0 45-34 45-75 0-40-5-75-45-74-42 0-51 32-51 76 0 43 10 73 51 73" id="bJ"/><g id="E"><use transform="matrix(0.06234567901234565,0,0,0.06234567901234565,0,0)" xlink:href="#bA"/><use transform="matrix(0.06234567901234565,0,0,0.06234567901234565,11.222222222222218,0)" xlink:href="#bw"/><use transform="matrix(0.06234567901234565,0,0,0.06234567901234565,23.691358024691347,0)" xlink:href="#bx"/><use transform="matrix(0.06234567901234565,0,0,0.06234567901234565,42.3327160493827,0)" xlink:href="#bJ"/><use transform="matrix(0.06234567901234565,0,0,0.06234567901234565,54.80185185185183,0)" xlink:href="#bz"/><use transform="matrix(0.06234567901234565,0,0,0.06234567901234565,59.727160493827135,0)" xlink:href="#bG"/><use transform="matrix(0.06234567901234565,0,0,0.06234567901234565,72.19629629629627,0)" xlink:href="#by"/><use transform="matrix(0.06234567901234565,0,0,0.06234567901234565,84.6654320987654,0)" xlink:href="#bv"/><use transform="matrix(0.06234567901234565,0,0,0.06234567901234565,90.89999999999996,0)" xlink:href="#bz"/><use transform="matrix(0.06234567901234565,0,0,0.06234567901234565,95.82530864197527,0)" xlink:href="#bw"/><use transform="matrix(0.06234567901234565,0,0,0.06234567901234565,108.2944444444444,0)" xlink:href="#bG"/></g><path fill="#19967d" d="M106-169C34-169 62-67 57 0H25v-261h32l-1 103c12-21 28-36 61-36 89 0 53 116 60 194h-32v-121c2-32-8-49-39-48" id="bK"/><path fill="#19967d" d="M143 0L79-87 56-68V0H24v-261h32v163l83-92h37l-77 82L181 0h-38" id="bL"/><path fill="#19967d" d="M114-163C36-179 61-72 57 0H25l-1-190h30c1 12-1 29 2 39 6-27 23-49 58-41v29" id="bM"/><g id="F"><use transform="matrix(0.06234567901234565,0,0,0.06234567901234565,0,0)" xlink:href="#bA"/><use transform="matrix(0.06234567901234565,0,0,0.06234567901234565,11.222222222222218,0)" xlink:href="#bK"/><use transform="matrix(0.06234567901234565,0,0,0.06234567901234565,23.691358024691347,0)" xlink:href="#bE"/><use transform="matrix(0.06234567901234565,0,0,0.06234567901234565,36.16049382716048,0)" xlink:href="#bA"/><use transform="matrix(0.06234567901234565,0,0,0.06234567901234565,47.382716049382694,0)" xlink:href="#bL"/><use transform="matrix(0.06234567901234565,0,0,0.06234567901234565,58.60493827160491,0)" xlink:href="#bE"/><use transform="matrix(0.06234567901234565,0,0,0.06234567901234565,71.07407407407403,0)" xlink:href="#bM"/></g><path fill="#19967d" d="M206 0h-36l-40-164L89 0H53L-1-190h32L70-26l43-164h34l41 164 42-164h31" id="bN"/><g id="G"><use transform="matrix(0.06234567901234565,0,0,0.06234567901234565,0,0)" xlink:href="#bD"/><use transform="matrix(0.06234567901234565,0,0,0.06234567901234565,12.46913580246913,0)" xlink:href="#bw"/><use transform="matrix(0.06234567901234565,0,0,0.06234567901234565,24.93827160493826,0)" xlink:href="#bN"/><use transform="matrix(0.06234567901234565,0,0,0.06234567901234565,41.085802469135785,0)" xlink:href="#bG"/><use transform="matrix(0.06234567901234565,0,0,0.06234567901234565,53.55493827160492,0)" xlink:href="#bF"/><use transform="matrix(0.06234567901234565,0,0,0.06234567901234565,58.480246913580224,0)" xlink:href="#bw"/><use transform="matrix(0.06234567901234565,0,0,0.06234567901234565,70.94938271604936,0)" xlink:href="#by"/><use transform="matrix(0.06234567901234565,0,0,0.06234567901234565,83.41851851851848,0)" xlink:href="#bD"/></g><path fill="#19967d" d="M141 0L90-78 38 0H4l68-98-65-92h35l48 74 47-74h35l-64 92 68 98h-35" id="bO"/><path fill="#19967d" d="M115-194c55 1 70 41 70 98S169 2 115 4C84 4 66-9 55-30l1 105H24l-1-265h31l2 30c10-21 28-34 59-34zm-8 174c40 0 45-34 45-75s-6-73-45-74c-42 0-51 32-51 76 0 43 10 73 51 73" id="bP"/><g id="H"><use transform="matrix(0.06234567901234565,0,0,0.06234567901234565,0,0)" xlink:href="#bA"/><use transform="matrix(0.06234567901234565,0,0,0.06234567901234565,11.222222222222218,0)" xlink:href="#bw"/><use transform="matrix(0.06234567901234565,0,0,0.06234567901234565,23.691358024691347,0)" xlink:href="#bu"/><use transform="matrix(0.06234567901234565,0,0,0.06234567901234565,36.16049382716048,0)" xlink:href="#bG"/><use transform="matrix(0.06234567901234565,0,0,0.06234567901234565,48.62962962962961,0)" xlink:href="#bv"/><use transform="matrix(0.06234567901234565,0,0,0.06234567901234565,54.864197530864175,0)" xlink:href="#bE"/><use transform="matrix(0.06234567901234565,0,0,0.06234567901234565,67.3333333333333,0)" xlink:href="#bM"/><use transform="matrix(0.06234567901234565,0,0,0.06234567901234565,74.75246913580243,0)" xlink:href="#bE"/><use transform="matrix(0.06234567901234565,0,0,0.06234567901234565,87.22160493827155,0)" xlink:href="#bO"/><use transform="matrix(0.06234567901234565,0,0,0.06234567901234565,98.44382716049377,0)" xlink:href="#by"/><use transform="matrix(0.06234567901234565,0,0,0.06234567901234565,110.9129629629629,0)" xlink:href="#bx"/><use transform="matrix(0.06234567901234565,0,0,0.06234567901234565,129.55432098765425,0)" xlink:href="#bP"/><use transform="matrix(0.06234567901234565,0,0,0.06234567901234565,142.0234567901234,0)" xlink:href="#bF"/><use transform="matrix(0.06234567901234565,0,0,0.06234567901234565,146.9487654320987,0)" xlink:href="#bE"/></g><g id="I"><use transform="matrix(0.06234567901234565,0,0,0.06234567901234565,0,0)" xlink:href="#bE"/><use transform="matrix(0.06234567901234565,0,0,0.06234567901234565,12.46913580246913,0)" xlink:href="#bG"/><use transform="matrix(0.06234567901234565,0,0,0.06234567901234565,24.93827160493826,0)" xlink:href="#bu"/><use transform="matrix(0.06234567901234565,0,0,0.06234567901234565,37.40740740740739,0)" xlink:href="#bx"/><use transform="matrix(0.06234567901234565,0,0,0.06234567901234565,56.04876543209874,0)" xlink:href="#bE"/><use transform="matrix(0.06234567901234565,0,0,0.06234567901234565,68.51790123456787,0)" xlink:href="#bM"/><use transform="matrix(0.06234567901234565,0,0,0.06234567901234565,75.937037037037,0)" xlink:href="#by"/><use transform="matrix(0.06234567901234565,0,0,0.06234567901234565,88.40617283950613,0)" xlink:href="#bv"/><use transform="matrix(0.06234567901234565,0,0,0.06234567901234565,94.6407407407407,0)" xlink:href="#bz"/><use transform="matrix(0.06234567901234565,0,0,0.06234567901234565,99.566049382716,0)" xlink:href="#bw"/><use transform="matrix(0.06234567901234565,0,0,0.06234567901234565,112.03518518518513,0)" xlink:href="#bG"/></g><g id="J"><use transform="matrix(0.06234567901234565,0,0,0.06234567901234565,0,0)" xlink:href="#bv"/><use transform="matrix(0.06234567901234565,0,0,0.06234567901234565,6.234567901234565,0)" xlink:href="#bM"/><use transform="matrix(0.06234567901234565,0,0,0.06234567901234565,13.653703703703698,0)" xlink:href="#by"/><use transform="matrix(0.06234567901234565,0,0,0.06234567901234565,26.12283950617283,0)" xlink:href="#bG"/><use transform="matrix(0.06234567901234565,0,0,0.06234567901234565,38.59197530864196,0)" xlink:href="#bH"/><use transform="matrix(0.06234567901234565,0,0,0.06234567901234565,49.81419753086418,0)" xlink:href="#bF"/><use transform="matrix(0.06234567901234565,0,0,0.06234567901234565,54.739506172839484,0)" xlink:href="#by"/><use transform="matrix(0.06234567901234565,0,0,0.06234567901234565,67.20864197530861,0)" xlink:href="#bv"/><use transform="matrix(0.06234567901234565,0,0,0.06234567901234565,73.44320987654318,0)" xlink:href="#bz"/><use transform="matrix(0.06234567901234565,0,0,0.06234567901234565,78.36851851851848,0)" xlink:href="#bw"/><use transform="matrix(0.06234567901234565,0,0,0.06234567901234565,90.83765432098761,0)" xlink:href="#bG"/></g><path fill="#19967d" d="M101-234c-31-9-42 10-38 44h38v23H63V0H32v-167H5v-23h27c-7-52 17-82 69-68v24" id="bQ"/><g id="K"><use transform="matrix(0.06234567901234565,0,0,0.06234567901234565,0,0)" xlink:href="#bw"/><use transform="matrix(0.06234567901234565,0,0,0.06234567901234565,12.46913580246913,0)" xlink:href="#bQ"/></g><path fill="#19967d" d="M212-179c-10-28-35-45-73-45-59 0-87 40-87 99 0 60 29 101 89 101 43 0 62-24 78-52l27 14C228-24 195 4 139 4 59 4 22-46 18-125c-6-104 99-153 187-111 19 9 31 26 39 46" id="bR"/><path fill="#19967d" d="M30 0v-248h187v28H63v79h144v27H63v87h162V0H30" id="bS"/><g id="L"><use transform="matrix(0.06234567901234565,0,0,0.06234567901234565,0,0)" xlink:href="#bR"/><use transform="matrix(0.06234567901234565,0,0,0.06234567901234565,16.147530864197524,0)" xlink:href="#bS"/><use transform="matrix(0.06234567901234565,0,0,0.06234567901234565,31.110493827160482,0)" xlink:href="#bH"/></g><g id="M"><use transform="matrix(0.06234567901234565,0,0,0.06234567901234565,0,0)" xlink:href="#bv"/><use transform="matrix(0.06234567901234565,0,0,0.06234567901234565,6.234567901234565,0)" xlink:href="#bw"/></g><g id="N"><use transform="matrix(0.06234567901234565,0,0,0.06234567901234565,0,0)" xlink:href="#bv"/><use transform="matrix(0.06234567901234565,0,0,0.06234567901234565,6.234567901234565,0)" xlink:href="#bE"/><use transform="matrix(0.06234567901234565,0,0,0.06234567901234565,18.703703703703695,0)" xlink:href="#bH"/><use transform="matrix(0.06234567901234565,0,0,0.06234567901234565,29.925925925925913,0)" xlink:href="#bv"/><use transform="matrix(0.06234567901234565,0,0,0.06234567901234565,36.16049382716048,0)" xlink:href="#bH"/></g><g id="O"><use transform="matrix(0.06234567901234565,0,0,0.06234567901234565,0,0)" xlink:href="#bA"/><use transform="matrix(0.06234567901234565,0,0,0.06234567901234565,11.222222222222218,0)" xlink:href="#bw"/><use transform="matrix(0.06234567901234565,0,0,0.06234567901234565,23.691358024691347,0)" xlink:href="#bx"/><use transform="matrix(0.06234567901234565,0,0,0.06234567901234565,42.3327160493827,0)" xlink:href="#bx"/><use transform="matrix(0.06234567901234565,0,0,0.06234567901234565,60.974074074074046,0)" xlink:href="#bu"/><use transform="matrix(0.06234567901234565,0,0,0.06234567901234565,73.44320987654318,0)" xlink:href="#bG"/><use transform="matrix(0.06234567901234565,0,0,0.06234567901234565,85.9123456790123,0)" xlink:href="#bz"/><use transform="matrix(0.06234567901234565,0,0,0.06234567901234565,90.83765432098761,0)" xlink:href="#bA"/><use transform="matrix(0.06234567901234565,0,0,0.06234567901234565,102.05987654320982,0)" xlink:href="#by"/><use transform="matrix(0.06234567901234565,0,0,0.06234567901234565,114.52901234567895,0)" xlink:href="#bv"/><use transform="matrix(0.06234567901234565,0,0,0.06234567901234565,120.76358024691352,0)" xlink:href="#bz"/><use transform="matrix(0.06234567901234565,0,0,0.06234567901234565,125.68888888888883,0)" xlink:href="#bw"/><use transform="matrix(0.06234567901234565,0,0,0.06234567901234565,138.15802469135795,0)" xlink:href="#bG"/></g><g id="P"><use transform="matrix(0.06234567901234565,0,0,0.06234567901234565,0,0)" xlink:href="#bN"/><use transform="matrix(0.06234567901234565,0,0,0.06234567901234565,16.147530864197524,0)" xlink:href="#bz"/><use transform="matrix(0.06234567901234565,0,0,0.06234567901234565,21.07283950617283,0)" xlink:href="#bv"/><use transform="matrix(0.06234567901234565,0,0,0.06234567901234565,27.307407407407396,0)" xlink:href="#bK"/></g><path fill="#19967d" d="M177-190C167-65 218 103 67 71c-23-6-38-20-44-43l32-5c15 47 100 32 89-28v-30C133-14 115 1 83 1 29 1 15-40 15-95c0-56 16-97 71-98 29-1 48 16 59 35 1-10 0-23 2-32h30zM94-22c36 0 50-32 50-73 0-42-14-75-50-75-39 0-46 34-46 75s6 73 46 73" id="bT"/><g id="Q"><use transform="matrix(0.06234567901234565,0,0,0.06234567901234565,0,0)" xlink:href="#bP"/><use transform="matrix(0.06234567901234565,0,0,0.06234567901234565,12.46913580246913,0)" xlink:href="#bF"/><use transform="matrix(0.06234567901234565,0,0,0.06234567901234565,17.39444444444444,0)" xlink:href="#bu"/><use transform="matrix(0.06234567901234565,0,0,0.06234567901234565,29.86358024691357,0)" xlink:href="#bT"/><use transform="matrix(0.06234567901234565,0,0,0.06234567901234565,42.332716049382704,0)" xlink:href="#bz"/><use transform="matrix(0.06234567901234565,0,0,0.06234567901234565,47.25802469135801,0)" xlink:href="#bG"/><use transform="matrix(0.06234567901234565,0,0,0.06234567901234565,59.72716049382714,0)" xlink:href="#bH"/></g><g id="R"><use transform="matrix(0.06234567901234565,0,0,0.06234567901234565,0,0)" xlink:href="#bH"/><use transform="matrix(0.06234567901234565,0,0,0.06234567901234565,11.222222222222218,0)" xlink:href="#bv"/><use transform="matrix(0.06234567901234565,0,0,0.06234567901234565,17.456790123456784,0)" xlink:href="#bw"/><use transform="matrix(0.06234567901234565,0,0,0.06234567901234565,29.925925925925917,0)" xlink:href="#bM"/><use transform="matrix(0.06234567901234565,0,0,0.06234567901234565,37.34506172839505,0)" xlink:href="#by"/><use transform="matrix(0.06234567901234565,0,0,0.06234567901234565,49.814197530864185,0)" xlink:href="#bT"/><use transform="matrix(0.06234567901234565,0,0,0.06234567901234565,62.28333333333332,0)" xlink:href="#bE"/></g><g id="S"><use transform="matrix(0.06234567901234565,0,0,0.06234567901234565,0,0)" xlink:href="#bA"/><use transform="matrix(0.06234567901234565,0,0,0.06234567901234565,11.222222222222218,0)" xlink:href="#by"/><use transform="matrix(0.06234567901234565,0,0,0.06234567901234565,23.691358024691347,0)" xlink:href="#bA"/><use transform="matrix(0.06234567901234565,0,0,0.06234567901234565,34.91358024691357,0)" xlink:href="#bK"/><use transform="matrix(0.06234567901234565,0,0,0.06234567901234565,47.3827160493827,0)" xlink:href="#bz"/><use transform="matrix(0.06234567901234565,0,0,0.06234567901234565,52.30802469135801,0)" xlink:href="#bG"/><use transform="matrix(0.06234567901234565,0,0,0.06234567901234565,64.77716049382714,0)" xlink:href="#bT"/></g><path d="M67-125c0 54 23 88 75 88 28 0 53-7 68-21v-34h-60v-39h108v91C232-14 192 4 140 4 58 4 20-42 15-125 8-236 126-280 215-234c19 10 29 26 37 47l-47 15c-11-23-29-39-63-39-53 1-75 33-75 86" id="bU"/><g id="T"><use transform="matrix(0.06234567901234567,0,0,0.06234567901234567,0,0)" xlink:href="#aT"/><use transform="matrix(0.06234567901234567,0,0,0.06234567901234567,18.641358024691353,0)" xlink:href="#aU"/><use transform="matrix(0.06234567901234567,0,0,0.06234567901234567,34.78888888888888,0)" xlink:href="#aV"/><use transform="matrix(0.06234567901234567,0,0,0.06234567901234567,47.195679012345664,0)" xlink:href="#aW"/><use transform="matrix(0.06234567901234567,0,0,0.06234567901234567,54.6148148148148,0)" xlink:href="#bU"/><use transform="matrix(0.06234567901234567,0,0,0.06234567901234567,72.07160493827159,0)" xlink:href="#as"/></g><path d="M240 0l2-218c-23 76-54 145-80 218h-23L58-218 59 0H30v-248h44l77 211c21-75 51-140 76-211h43V0h-30" id="bV"/><g id="U"><use transform="matrix(0.06234567901234567,0,0,0.06234567901234567,0,0)" xlink:href="#bV"/><use transform="matrix(0.06234567901234567,0,0,0.06234567901234567,18.641358024691353,0)" xlink:href="#aQ"/><use transform="matrix(0.06234567901234567,0,0,0.06234567901234567,33.60432098765431,0)" xlink:href="#bh"/></g><path d="M212-179c-10-28-35-45-73-45-59 0-87 40-87 99 0 60 29 101 89 101 43 0 62-24 78-52l27 14C228-24 195 4 139 4 59 4 22-46 18-125c-6-104 99-153 187-111 19 9 31 26 39 46" id="bW"/><g id="V"><use transform="matrix(0.06234567901234567,0,0,0.06234567901234567,0,0)" xlink:href="#bW"/><use transform="matrix(0.06234567901234567,0,0,0.06234567901234567,16.147530864197527,0)" xlink:href="#aI"/><use transform="matrix(0.06234567901234567,0,0,0.06234567901234567,28.61666666666666,0)" xlink:href="#aF"/><use transform="matrix(0.06234567901234567,0,0,0.06234567901234567,41.08580246913579,0)" xlink:href="#aK"/><use transform="matrix(0.06234567901234567,0,0,0.06234567901234567,47.320370370370355,0)" xlink:href="#aH"/><use transform="matrix(0.06234567901234567,0,0,0.06234567901234567,52.24567901234566,0)" xlink:href="#aN"/></g><g id="W"><use transform="matrix(0.06234567901234567,0,0,0.06234567901234567,0,0)" xlink:href="#aT"/><use transform="matrix(0.06234567901234567,0,0,0.06234567901234567,18.641358024691353,0)" xlink:href="#as"/><use transform="matrix(0.06234567901234567,0,0,0.06234567901234567,32.295061728395055,0)" xlink:href="#bf"/><use transform="matrix(0.06234567901234567,0,0,0.06234567901234567,45.94876543209875,0)" xlink:href="#bg"/><use transform="matrix(0.06234567901234567,0,0,0.06234567901234567,58.417901234567886,0)" xlink:href="#av"/><use transform="matrix(0.06234567901234567,0,0,0.06234567901234567,64.65246913580245,0)" xlink:href="#bc"/><use transform="matrix(0.06234567901234567,0,0,0.06234567901234567,77.12160493827159,0)" xlink:href="#at"/><use transform="matrix(0.06234567901234567,0,0,0.06234567901234567,84.54074074074072,0)" xlink:href="#as"/><use transform="matrix(0.06234567901234567,0,0,0.06234567901234567,98.19444444444441,0)" xlink:href="#ar"/></g><path d="M67-93c0 74 22 123 53 168H70C40 30 18-18 18-93s22-123 52-168h50c-32 44-53 94-53 168" id="bX"/><path d="M102-93c0 74-22 123-52 168H0C30 29 54-18 53-93c0-74-22-123-53-168h50c30 45 52 94 52 168" id="bY"/><g id="X"><use transform="matrix(0.06234567901234567,0,0,0.06234567901234567,0,0)" xlink:href="#bX"/><use transform="matrix(0.06234567901234567,0,0,0.06234567901234567,7.4191358024691345,0)" xlink:href="#aT"/><use transform="matrix(0.06234567901234567,0,0,0.06234567901234567,26.06049382716049,0)" xlink:href="#aU"/><use transform="matrix(0.06234567901234567,0,0,0.06234567901234567,42.20802469135802,0)" xlink:href="#aV"/><use transform="matrix(0.06234567901234567,0,0,0.06234567901234567,54.61481481481481,0)" xlink:href="#aW"/><use transform="matrix(0.06234567901234567,0,0,0.06234567901234567,62.03395061728394,0)" xlink:href="#bp"/><use transform="matrix(0.06234567901234567,0,0,0.06234567901234567,78.18148148148147,0)" xlink:href="#as"/><use transform="matrix(0.06234567901234567,0,0,0.06234567901234567,91.83518518518517,0)" xlink:href="#ar"/><use transform="matrix(0.06234567901234567,0,0,0.06234567901234567,100.56358024691356,0)" xlink:href="#bg"/><use transform="matrix(0.06234567901234567,0,0,0.06234567901234567,113.03271604938269,0)" xlink:href="#bY"/></g><use transform="matrix(0.06234567901234567,0,0,0.06234567901234567,0,0)" xlink:href="#bC" id="Y"/><g id="Z"><use transform="matrix(0.06234567901234567,0,0,0.06234567901234567,0,0)" xlink:href="#bA"/><use transform="matrix(0.06234567901234567,0,0,0.06234567901234567,11.22222222222222,0)" xlink:href="#bw"/><use transform="matrix(0.06234567901234567,0,0,0.06234567901234567,23.691358024691354,0)" xlink:href="#bx"/><use transform="matrix(0.06234567901234567,0,0,0.06234567901234567,42.33271604938271,0)" xlink:href="#bx"/><use transform="matrix(0.06234567901234567,0,0,0.06234567901234567,60.97407407407407,0)" xlink:href="#bu"/><use transform="matrix(0.06234567901234567,0,0,0.06234567901234567,73.4432098765432,0)" xlink:href="#bG"/><use transform="matrix(0.06234567901234567,0,0,0.06234567901234567,85.91234567901233,0)" xlink:href="#bz"/><use transform="matrix(0.06234567901234567,0,0,0.06234567901234567,90.83765432098764,0)" xlink:href="#bA"/><use transform="matrix(0.06234567901234567,0,0,0.06234567901234567,102.05987654320985,0)" xlink:href="#by"/><use transform="matrix(0.06234567901234567,0,0,0.06234567901234567,114.52901234567898,0)" xlink:href="#bv"/><use transform="matrix(0.06234567901234567,0,0,0.06234567901234567,120.76358024691355,0)" xlink:href="#bz"/><use transform="matrix(0.06234567901234567,0,0,0.06234567901234567,125.68888888888885,0)" xlink:href="#bw"/><use transform="matrix(0.06234567901234567,0,0,0.06234567901234567,138.15802469135798,0)" xlink:href="#bG"/></g><g id="aa"><use transform="matrix(0.06234567901234567,0,0,0.06234567901234567,0,0)" xlink:href="#bN"/><use transform="matrix(0.06234567901234567,0,0,0.06234567901234567,16.147530864197527,0)" xlink:href="#bz"/><use transform="matrix(0.06234567901234567,0,0,0.06234567901234567,21.072839506172834,0)" xlink:href="#bv"/><use transform="matrix(0.06234567901234567,0,0,0.06234567901234567,27.3074074074074,0)" xlink:href="#bK"/></g><path fill="#19967d" d="M240 0l2-218c-23 76-54 145-80 218h-23L58-218 59 0H30v-248h44l77 211c21-75 51-140 76-211h43V0h-30" id="bZ"/><path fill="#19967d" d="M160-131c35 5 61 23 61 61C221 17 115-2 30 0v-248c76 3 177-17 177 60 0 33-19 50-47 57zm-97-11c50-1 110 9 110-42 0-47-63-36-110-37v79zm0 115c55-2 124 14 124-45 0-56-70-42-124-44v89" id="ca"/><path fill="#19967d" d="M127-220V0H93v-220H8v-28h204v28h-85" id="cb"/><path fill="#19967d" d="M16-82v-28h88v28H16" id="cc"/><g id="ab"><use transform="matrix(0.06234567901234567,0,0,0.06234567901234567,0,0)" xlink:href="#bZ"/><use transform="matrix(0.06234567901234567,0,0,0.06234567901234567,18.641358024691353,0)" xlink:href="#ca"/><use transform="matrix(0.06234567901234567,0,0,0.06234567901234567,33.60432098765431,0)" xlink:href="#cb"/><use transform="matrix(0.06234567901234567,0,0,0.06234567901234567,46.011111111111106,0)" xlink:href="#cc"/><use transform="matrix(0.06234567901234567,0,0,0.06234567901234567,53.43024691358024,0)" xlink:href="#bA"/><use transform="matrix(0.06234567901234567,0,0,0.06234567901234567,64.65246913580246,0)" xlink:href="#bw"/><use transform="matrix(0.06234567901234567,0,0,0.06234567901234567,77.12160493827159,0)" xlink:href="#bM"/><use transform="matrix(0.06234567901234567,0,0,0.06234567901234567,84.54074074074072,0)" xlink:href="#bE"/></g><g id="ac"><use transform="matrix(0.06234567901234567,0,0,0.06234567901234567,0,0)" xlink:href="#bv"/><use transform="matrix(0.06234567901234567,0,0,0.06234567901234567,6.234567901234566,0)" xlink:href="#bE"/><use transform="matrix(0.06234567901234567,0,0,0.06234567901234567,18.7037037037037,0)" xlink:href="#bH"/><use transform="matrix(0.06234567901234567,0,0,0.06234567901234567,29.925925925925917,0)" xlink:href="#bv"/></g><g id="ad"><use transform="matrix(0.06234567901234567,0,0,0.06234567901234567,0,0)" xlink:href="#bE"/><use transform="matrix(0.06234567901234567,0,0,0.06234567901234567,12.469135802469133,0)" xlink:href="#bO"/><use transform="matrix(0.06234567901234567,0,0,0.06234567901234567,23.691358024691354,0)" xlink:href="#bE"/><use transform="matrix(0.06234567901234567,0,0,0.06234567901234567,36.16049382716049,0)" xlink:href="#bA"/><use transform="matrix(0.06234567901234567,0,0,0.06234567901234567,47.38271604938271,0)" xlink:href="#bu"/><use transform="matrix(0.06234567901234567,0,0,0.06234567901234567,59.85185185185184,0)" xlink:href="#bv"/><use transform="matrix(0.06234567901234567,0,0,0.06234567901234567,66.0864197530864,0)" xlink:href="#bz"/><use transform="matrix(0.06234567901234567,0,0,0.06234567901234567,71.01172839506171,0)" xlink:href="#bw"/><use transform="matrix(0.06234567901234567,0,0,0.06234567901234567,83.48086419753085,0)" xlink:href="#bG"/></g><path fill="#19967d" d="M9 0v-24l116-142H16v-24h144v24L44-24h123V0H9" id="cd"/><g id="ae"><use transform="matrix(0.06234567901234567,0,0,0.06234567901234567,0,0)" xlink:href="#bQ"/><use transform="matrix(0.06234567901234567,0,0,0.06234567901234567,6.234567901234566,0)" xlink:href="#bu"/><use transform="matrix(0.06234567901234567,0,0,0.06234567901234567,18.7037037037037,0)" xlink:href="#cd"/><use transform="matrix(0.06234567901234567,0,0,0.06234567901234567,29.925925925925917,0)" xlink:href="#cd"/><use transform="matrix(0.06234567901234567,0,0,0.06234567901234567,41.14814814814814,0)" xlink:href="#bz"/><use transform="matrix(0.06234567901234567,0,0,0.06234567901234567,46.073456790123444,0)" xlink:href="#bG"/><use transform="matrix(0.06234567901234567,0,0,0.06234567901234567,58.54259259259258,0)" xlink:href="#bT"/></g><path fill="#19967d" d="M108 0H70L1-190h34L89-25l56-165h34" id="ce"/><g id="af"><use transform="matrix(0.06234567901234567,0,0,0.06234567901234567,0,0)" xlink:href="#ce"/><use transform="matrix(0.06234567901234567,0,0,0.06234567901234567,11.22222222222222,0)" xlink:href="#bz"/><use transform="matrix(0.06234567901234567,0,0,0.06234567901234567,16.147530864197527,0)" xlink:href="#by"/></g><path fill="#19967d" d="M30-248c87 1 191-15 191 75 0 78-77 80-158 76V0H30v-248zm33 125c57 0 124 11 124-50 0-59-68-47-124-48v98" id="cf"/><g id="ag"><use transform="matrix(0.06234567901234567,0,0,0.06234567901234567,0,0)" xlink:href="#cf"/><use transform="matrix(0.06234567901234567,0,0,0.06234567901234567,14.96296296296296,0)" xlink:href="#ca"/><use transform="matrix(0.06234567901234567,0,0,0.06234567901234567,29.92592592592592,0)" xlink:href="#cc"/><use transform="matrix(0.06234567901234567,0,0,0.06234567901234567,37.34506172839505,0)" xlink:href="#bF"/><use transform="matrix(0.06234567901234567,0,0,0.06234567901234567,42.27037037037036,0)" xlink:href="#bz"/><use transform="matrix(0.06234567901234567,0,0,0.06234567901234567,47.195679012345664,0)" xlink:href="#bJ"/><use transform="matrix(0.06234567901234567,0,0,0.06234567901234567,59.6648148148148,0)" xlink:href="#bM"/><use transform="matrix(0.06234567901234567,0,0,0.06234567901234567,67.08395061728393,0)" xlink:href="#by"/><use transform="matrix(0.06234567901234567,0,0,0.06234567901234567,79.55308641975307,0)" xlink:href="#bM"/><use transform="matrix(0.06234567901234567,0,0,0.06234567901234567,86.9722222222222,0)" xlink:href="#bz"/><use transform="matrix(0.06234567901234567,0,0,0.06234567901234567,91.8975308641975,0)" xlink:href="#bE"/><use transform="matrix(0.06234567901234567,0,0,0.06234567901234567,104.36666666666665,0)" xlink:href="#bH"/></g><g id="ah"><use transform="matrix(0.06234567901234567,0,0,0.06234567901234567,0,0)" xlink:href="#bP"/><use transform="matrix(0.06234567901234567,0,0,0.06234567901234567,12.469135802469133,0)" xlink:href="#bM"/><use transform="matrix(0.06234567901234567,0,0,0.06234567901234567,19.888271604938268,0)" xlink:href="#bE"/><use transform="matrix(0.06234567901234567,0,0,0.06234567901234567,32.3574074074074,0)" xlink:href="#bH"/><use transform="matrix(0.06234567901234567,0,0,0.06234567901234567,43.57962962962962,0)" xlink:href="#bE"/><use transform="matrix(0.06234567901234567,0,0,0.06234567901234567,56.048765432098755,0)" xlink:href="#bG"/><use transform="matrix(0.06234567901234567,0,0,0.06234567901234567,68.51790123456789,0)" xlink:href="#bv"/><use transform="matrix(0.06234567901234567,0,0,0.06234567901234567,74.75246913580246,0)" xlink:href="#by"/><use transform="matrix(0.06234567901234567,0,0,0.06234567901234567,87.22160493827158,0)" xlink:href="#bv"/><use transform="matrix(0.06234567901234567,0,0,0.06234567901234567,93.45617283950615,0)" xlink:href="#bz"/><use transform="matrix(0.06234567901234567,0,0,0.06234567901234567,98.38148148148146,0)" xlink:href="#bw"/><use transform="matrix(0.06234567901234567,0,0,0.06234567901234567,110.85061728395058,0)" xlink:href="#bG"/></g><g id="ai"><use transform="matrix(0.06234567901234567,0,0,0.06234567901234567,0,0)" xlink:href="#bw"/><use transform="matrix(0.06234567901234567,0,0,0.06234567901234567,12.469135802469133,0)" xlink:href="#bQ"/></g><g id="aj"><use transform="matrix(0.06234567901234567,0,0,0.06234567901234567,0,0)" xlink:href="#bM"/><use transform="matrix(0.06234567901234567,0,0,0.06234567901234567,7.4191358024691345,0)" xlink:href="#bE"/><use transform="matrix(0.06234567901234567,0,0,0.06234567901234567,19.888271604938268,0)" xlink:href="#bH"/><use transform="matrix(0.06234567901234567,0,0,0.06234567901234567,31.11049382716049,0)" xlink:href="#bu"/><use transform="matrix(0.06234567901234567,0,0,0.06234567901234567,43.57962962962962,0)" xlink:href="#bF"/><use transform="matrix(0.06234567901234567,0,0,0.06234567901234567,48.50493827160493,0)" xlink:href="#bv"/><use transform="matrix(0.06234567901234567,0,0,0.06234567901234567,54.7395061728395,0)" xlink:href="#bH"/></g><g id="ak"><use transform="matrix(0.062345679012345646,0,0,0.062345679012345646,0,0)" xlink:href="#aV"/><use transform="matrix(0.062345679012345646,0,0,0.062345679012345646,11.970370370370365,0)" xlink:href="#bg"/><use transform="matrix(0.062345679012345646,0,0,0.062345679012345646,24.439506172839494,0)" xlink:href="#aZ"/><use transform="matrix(0.062345679012345646,0,0,0.062345679012345646,36.908641975308626,0)" xlink:href="#at"/><use transform="matrix(0.062345679012345646,0,0,0.062345679012345646,44.327777777777754,0)" xlink:href="#aZ"/></g><path d="M153-248C145-148 188 4 80 4 36 3 13-21 6-62l32-5c4 25 16 42 43 43 27 0 39-20 39-49v-147H72v-28h81" id="cg"/><path d="M140-251c81 0 123 46 123 126C263-46 219 4 140 4 59 4 17-45 17-125s42-126 123-126zm0 227c63 0 89-41 89-101s-29-99-89-99c-61 0-89 39-89 99S79-25 140-24" id="ch"/><path d="M190 0L58-211 59 0H30v-248h39L202-35l-2-213h31V0h-41" id="ci"/><g id="am"><use transform="matrix(0.062345679012345646,0,0,0.062345679012345646,0,0)" xlink:href="#cg"/><use transform="matrix(0.062345679012345646,0,0,0.062345679012345646,11.222222222222216,0)" xlink:href="#aJ"/><use transform="matrix(0.062345679012345646,0,0,0.062345679012345646,26.18518518518517,0)" xlink:href="#ch"/><use transform="matrix(0.062345679012345646,0,0,0.062345679012345646,43.641975308641946,0)" xlink:href="#ci"/></g><g id="an"><use transform="matrix(0.06234567901234567,0,0,0.06234567901234567,0,0)" xlink:href="#bh"/><use transform="matrix(0.06234567901234567,0,0,0.06234567901234567,13.653703703703702,0)" xlink:href="#bi"/><use transform="matrix(0.06234567901234567,0,0,0.06234567901234567,26.122839506172834,0)" xlink:href="#bW"/></g><g id="ao"><use transform="matrix(0.06234567901234567,0,0,0.06234567901234567,0,0)" xlink:href="#bp"/><use transform="matrix(0.06234567901234567,0,0,0.06234567901234567,16.147530864197527,0)" xlink:href="#as"/><use transform="matrix(0.06234567901234567,0,0,0.06234567901234567,29.80123456790123,0)" xlink:href="#aY"/><use transform="matrix(0.06234567901234567,0,0,0.06234567901234567,43.45493827160493,0)" xlink:href="#be"/><use transform="matrix(0.06234567901234567,0,0,0.06234567901234567,57.10864197530863,0)" xlink:href="#at"/><use transform="matrix(0.06234567901234567,0,0,0.06234567901234567,64.52777777777776,0)" xlink:href="#bg"/><use transform="matrix(0.06234567901234567,0,0,0.06234567901234567,76.99691358024688,0)" xlink:href="#ar"/><use transform="matrix(0.06234567901234567,0,0,0.06234567901234567,85.72530864197527,0)" xlink:href="#bg"/><use transform="matrix(0.06234567901234567,0,0,0.06234567901234567,98.1944444444444,0)" xlink:href="#bq"/><use transform="matrix(0.06234567901234567,0,0,0.06234567901234567,110.66358024691354,0)" xlink:href="#bc"/><use transform="matrix(0.06234567901234567,0,0,0.06234567901234567,123.13271604938268,0)" xlink:href="#br"/><use transform="matrix(0.06234567901234567,0,0,0.06234567901234567,143.0833333333333,0)" xlink:href="#bs"/><use transform="matrix(0.06234567901234567,0,0,0.06234567901234567,156.737037037037,0)" xlink:href="#av"/><use transform="matrix(0.06234567901234567,0,0,0.06234567901234567,162.97160493827155,0)" xlink:href="#bg"/><use transform="matrix(0.06234567901234567,0,0,0.06234567901234567,175.4407407407407,0)" xlink:href="#aZ"/></g><g id="ap"><use transform="matrix(0.06234567901234567,0,0,0.06234567901234567,0,0)" xlink:href="#aT"/><use transform="matrix(0.06234567901234567,0,0,0.06234567901234567,18.641358024691353,0)" xlink:href="#aU"/><use transform="matrix(0.06234567901234567,0,0,0.06234567901234567,34.78888888888888,0)" xlink:href="#aV"/><use transform="matrix(0.06234567901234567,0,0,0.06234567901234567,47.195679012345664,0)" xlink:href="#aW"/><use transform="matrix(0.06234567901234567,0,0,0.06234567901234567,54.6148148148148,0)" xlink:href="#aX"/><use transform="matrix(0.06234567901234567,0,0,0.06234567901234567,70.76234567901233,0)" xlink:href="#aq"/><use transform="matrix(0.06234567901234567,0,0,0.06234567901234567,85.72530864197529,0)" xlink:href="#bp"/></g></defs></g></svg>